<svg width="552" height="404" viewBox="0 0 552 404" fill="none" xmlns="http://www.w3.org/2000/svg">
<path d="M324.601 113.6V57.4796L276 29.4193L227.4 57.4796V113.6L276 141.661L324.601 113.6Z" stroke="url(#paint0_linear)" stroke-width="2" stroke-miterlimit="10"/>
<path d="M330.558 117.039V54.042L276.001 22.5433L221.443 54.042V117.039L276.001 148.538L330.558 117.039Z" stroke="url(#paint1_linear)" stroke-width="1.9495" stroke-miterlimit="10"/>
<path d="M336.514 120.477V50.6031L276 15.6591L215.486 50.6031V120.477L276 155.414L336.514 120.477Z" stroke="url(#paint2_linear)" stroke-width="1.8989" stroke-miterlimit="10"/>
<path d="M342.477 123.916V47.1577L276 8.78223L209.523 47.1577V123.916L276 162.298L342.477 123.916Z" stroke="url(#paint3_linear)" stroke-width="1.8484" stroke-miterlimit="10"/>
<path d="M348.434 127.361V43.7194L276 1.89868L203.566 43.7194V127.361L276 169.175L348.434 127.361Z" stroke="url(#paint4_linear)" stroke-width="1.7979" stroke-miterlimit="10"/>
<path d="M354.39 130.799V40.2812L276 -4.97791L197.609 40.2812V130.799L276 176.059L354.39 130.799Z" stroke="url(#paint5_linear)" stroke-width="1.7474" stroke-miterlimit="10"/>
<path d="M360.347 134.238V36.8427L276 -11.8547L191.653 36.8427V134.238L276 182.935L360.347 134.238Z" stroke="url(#paint6_linear)" stroke-width="1.6968" stroke-miterlimit="10"/>
<path d="M366.304 137.676V33.4041L276.001 -18.7386L185.697 33.4041V137.676L276.001 189.812L366.304 137.676Z" stroke="url(#paint7_linear)" stroke-width="1.6463" stroke-miterlimit="10"/>
<path d="M372.26 141.114V29.959L276 -25.6152L179.739 29.959V141.114L276 196.695L372.26 141.114Z" stroke="url(#paint8_linear)" stroke-width="1.5958" stroke-miterlimit="10"/>
<path d="M378.224 144.56V26.5207L276 -32.4988L173.776 26.5207V144.56L276 203.572L378.224 144.56Z" stroke="url(#paint9_linear)" stroke-width="1.5453" stroke-miterlimit="10"/>
<path d="M384.181 147.998V23.0825L276 -39.3754L167.82 23.0825V147.998L276 210.456L384.181 147.998Z" stroke="url(#paint10_linear)" stroke-width="1.4947" stroke-miterlimit="10"/>
<path d="M390.136 151.436V19.6437L275.999 -46.2525L161.862 19.6437V151.436L275.999 217.332L390.136 151.436Z" stroke="url(#paint11_linear)" stroke-width="1.4442" stroke-miterlimit="10"/>
<path d="M396.094 154.875V16.2054L276 -53.1361L155.906 16.2054V154.875L276 224.216L396.094 154.875Z" stroke="url(#paint12_linear)" stroke-width="1.3937" stroke-miterlimit="10"/>
<path d="M402.051 158.313V12.7603L276 -60.0127L149.95 12.7603V158.313L276 231.093L402.051 158.313Z" stroke="url(#paint13_linear)" stroke-width="1.3432" stroke-miterlimit="10"/>
<path d="M408.014 161.758V9.322L276.001 -66.8962L143.987 9.322V161.758L276.001 237.97L408.014 161.758Z" stroke="url(#paint14_linear)" stroke-width="1.2926" stroke-miterlimit="10"/>
<path d="M413.97 165.197V5.88377L276 -73.7728L138.029 5.88377V165.197L276 244.854L413.97 165.197Z" stroke="url(#paint15_linear)" stroke-width="1.2421" stroke-miterlimit="10"/>
<path d="M419.927 168.635V2.44532L276 -80.6497L132.073 2.44532V168.635L276 251.73L419.927 168.635Z" stroke="url(#paint16_linear)" stroke-width="1.1916" stroke-miterlimit="10"/>
<path d="M425.884 172.073V-1.00023L276.001 -87.5336L126.117 -1.00023V172.073L276.001 258.614L425.884 172.073Z" stroke="url(#paint17_linear)" stroke-width="1.1411" stroke-miterlimit="10"/>
<path d="M431.84 175.512V-4.43846L276 -94.4102L120.159 -4.43846V175.512L276 265.49L431.84 175.512Z" stroke="url(#paint18_linear)" stroke-width="1.0905" stroke-miterlimit="10"/>
<path d="M437.797 178.957V-7.87672L276 -101.294L114.203 -7.87672V178.957L276 272.367L437.797 178.957Z" stroke="url(#paint19_linear)" stroke-width="1.04" stroke-miterlimit="10"/>
<path d="M443.761 182.396V-11.3147L276 -108.17L108.24 -11.3147V182.396L276 279.251L443.761 182.396Z" stroke="url(#paint20_linear)" stroke-width="0.9895" stroke-miterlimit="10"/>
<path d="M449.717 185.834V-14.7532L276 -115.054L102.283 -14.7532V185.834L276 286.128L449.717 185.834Z" stroke="url(#paint21_linear)" stroke-width="0.9389" stroke-miterlimit="10"/>
<path d="M455.674 189.272V-18.1987L276 -121.931L96.3264 -18.1987V189.272L276 293.011L455.674 189.272Z" stroke="url(#paint22_linear)" stroke-width="0.8884" stroke-miterlimit="10"/>
<path d="M461.631 192.711V-21.6372L276 -128.808L90.3701 -21.6372V192.711L276 299.888L461.631 192.711Z" stroke="url(#paint23_linear)" stroke-width="0.8379" stroke-miterlimit="10"/>
<path d="M467.586 196.156V-25.0754L276 -135.691L84.4128 -25.0754V196.156L276 306.765L467.586 196.156Z" stroke="url(#paint24_linear)" stroke-width="0.7874" stroke-miterlimit="10"/>
<path d="M473.55 199.594V-28.514L276 -142.568L78.4497 -28.514V199.594L276 313.648L473.55 199.594Z" stroke="url(#paint25_linear)" stroke-width="0.7368" stroke-miterlimit="10"/>
<path d="M479.507 203.032V-31.9525L276 -149.452L72.4934 -31.9525V203.032L276 320.525L479.507 203.032Z" stroke="url(#paint26_linear)" stroke-width="0.6863" stroke-miterlimit="10"/>
<path d="M485.463 206.471V-35.3977L275.999 -156.328L66.5359 -35.3977V206.471L275.999 327.409L485.463 206.471Z" stroke="url(#paint27_linear)" stroke-width="0.6358" stroke-miterlimit="10"/>
<path d="M491.42 209.909V-38.8359L276 -163.205L60.5798 -38.8359V209.909L276 334.286L491.42 209.909Z" stroke="url(#paint28_linear)" stroke-width="0.5853" stroke-miterlimit="10"/>
<path d="M497.377 213.355V-42.2742L276 -170.089L54.6235 -42.2742V213.355L276 341.162L497.377 213.355Z" stroke="url(#paint29_linear)" stroke-width="0.5347" stroke-miterlimit="10"/>
<path d="M503.34 216.793V-45.7128L276 -176.966L48.6663 -45.7128V216.793L276 348.046L503.34 216.793Z" stroke="url(#paint30_linear)" stroke-width="0.4842" stroke-miterlimit="10"/>
<path d="M509.297 220.231V-49.151L276 -183.849L42.7029 -49.151V220.231L276 354.923L509.297 220.231Z" stroke="url(#paint31_linear)" stroke-width="0.4337" stroke-miterlimit="10"/>
<path d="M515.253 223.67V-52.5961L276 -190.726L36.7466 -52.5961V223.67L276 361.806L515.253 223.67Z" stroke="url(#paint32_linear)" stroke-width="0.3832" stroke-miterlimit="10"/>
<path d="M521.211 227.108V-56.0346L276.001 -197.603L30.7905 -56.0346V227.108L276.001 368.683L521.211 227.108Z" stroke="url(#paint33_linear)" stroke-width="0.3326" stroke-miterlimit="10"/>
<path d="M527.166 230.554V-59.4729L276 -204.486L24.833 -59.4729V230.554L276 375.567L527.166 230.554Z" stroke="url(#paint34_linear)" stroke-width="0.2821" stroke-miterlimit="10"/>
<path d="M533.123 233.992V-62.9115L276 -211.363L18.877 -62.9115V233.992L276 382.443L533.123 233.992Z" stroke="url(#paint35_linear)" stroke-width="0.2316" stroke-miterlimit="10"/>
<path d="M539.087 237.43V-66.3497L276 -218.247L12.9136 -66.3497V237.43L276 389.32L539.087 237.43Z" stroke="url(#paint36_linear)" stroke-width="0.1811" stroke-miterlimit="10"/>
<path d="M545.043 240.869V-69.7949L276 -225.123L6.9563 -69.7949V240.869L276 396.204L545.043 240.869Z" stroke="url(#paint37_linear)" stroke-width="0.1305" stroke-miterlimit="10"/>
<path d="M551 244.314V-73.2333L276 -232L1 -73.2333V244.314L276 403.08L551 244.314Z" stroke="url(#paint38_linear)" stroke-width="0.08" stroke-miterlimit="10"/>
<defs>
<linearGradient id="paint0_linear" x1="237.125" y1="124.415" x2="314.876" y2="46.6634" gradientUnits="userSpaceOnUse">
<stop stop-color="#FFAB67"/>
<stop offset="0.0554" stop-color="#FF9F6C"/>
<stop offset="0.3301" stop-color="#FF6784"/>
<stop offset="0.4627" stop-color="#FF518D"/>
<stop offset="1" stop-color="#5E309D"/>
</linearGradient>
<linearGradient id="paint1_linear" x1="232.44" y1="129.1" x2="319.561" y2="41.9791" gradientUnits="userSpaceOnUse">
<stop stop-color="#FFAB67"/>
<stop offset="0.0554" stop-color="#FF9F6C"/>
<stop offset="0.3301" stop-color="#FF6784"/>
<stop offset="0.4627" stop-color="#FF518D"/>
<stop offset="1" stop-color="#5E309D"/>
</linearGradient>
<linearGradient id="paint2_linear" x1="227.754" y1="133.785" x2="324.245" y2="37.2936" gradientUnits="userSpaceOnUse">
<stop stop-color="#FFAB67"/>
<stop offset="0.0554" stop-color="#FF9F6C"/>
<stop offset="0.3301" stop-color="#FF6784"/>
<stop offset="0.4627" stop-color="#FF518D"/>
<stop offset="1" stop-color="#5E309D"/>
</linearGradient>
<linearGradient id="paint3_linear" x1="223.069" y1="138.47" x2="328.931" y2="32.6084" gradientUnits="userSpaceOnUse">
<stop stop-color="#FFAB67"/>
<stop offset="0.0554" stop-color="#FF9F6C"/>
<stop offset="0.3301" stop-color="#FF6784"/>
<stop offset="0.4627" stop-color="#FF518D"/>
<stop offset="1" stop-color="#5E309D"/>
</linearGradient>
<linearGradient id="paint4_linear" x1="218.385" y1="143.155" x2="333.616" y2="27.9234" gradientUnits="userSpaceOnUse">
<stop stop-color="#FFAB67"/>
<stop offset="0.0554" stop-color="#FF9F6C"/>
<stop offset="0.3301" stop-color="#FF6784"/>
<stop offset="0.4627" stop-color="#FF518D"/>
<stop offset="1" stop-color="#5E309D"/>
</linearGradient>
<linearGradient id="paint5_linear" x1="213.699" y1="147.84" x2="338.3" y2="23.2385" gradientUnits="userSpaceOnUse">
<stop stop-color="#FFAB67"/>
<stop offset="0.0554" stop-color="#FF9F6C"/>
<stop offset="0.3301" stop-color="#FF6784"/>
<stop offset="0.4627" stop-color="#FF518D"/>
<stop offset="1" stop-color="#5E309D"/>
</linearGradient>
<linearGradient id="paint6_linear" x1="209.014" y1="152.525" x2="342.986" y2="18.5533" gradientUnits="userSpaceOnUse">
<stop stop-color="#FFAB67"/>
<stop offset="0.0554" stop-color="#FF9F6C"/>
<stop offset="0.3301" stop-color="#FF6784"/>
<stop offset="0.4627" stop-color="#FF518D"/>
<stop offset="1" stop-color="#5E309D"/>
</linearGradient>
<linearGradient id="paint7_linear" x1="204.33" y1="157.21" x2="347.671" y2="13.868" gradientUnits="userSpaceOnUse">
<stop stop-color="#FFAB67"/>
<stop offset="0.0554" stop-color="#FF9F6C"/>
<stop offset="0.3301" stop-color="#FF6784"/>
<stop offset="0.4627" stop-color="#FF518D"/>
<stop offset="1" stop-color="#5E309D"/>
</linearGradient>
<linearGradient id="paint8_linear" x1="199.644" y1="161.895" x2="352.356" y2="9.18309" gradientUnits="userSpaceOnUse">
<stop stop-color="#FFAB67"/>
<stop offset="0.0554" stop-color="#FF9F6C"/>
<stop offset="0.3301" stop-color="#FF6784"/>
<stop offset="0.4627" stop-color="#FF518D"/>
<stop offset="1" stop-color="#5E309D"/>
</linearGradient>
<linearGradient id="paint9_linear" x1="194.959" y1="166.58" x2="357.041" y2="4.49815" gradientUnits="userSpaceOnUse">
<stop stop-color="#FFAB67"/>
<stop offset="0.0554" stop-color="#FF9F6C"/>
<stop offset="0.3301" stop-color="#FF6784"/>
<stop offset="0.4627" stop-color="#FF518D"/>
<stop offset="1" stop-color="#5E309D"/>
</linearGradient>
<linearGradient id="paint10_linear" x1="190.274" y1="171.265" x2="361.726" y2="-0.186749" gradientUnits="userSpaceOnUse">
<stop stop-color="#FFAB67"/>
<stop offset="0.0554" stop-color="#FF9F6C"/>
<stop offset="0.3301" stop-color="#FF6784"/>
<stop offset="0.4627" stop-color="#FF518D"/>
<stop offset="1" stop-color="#5E309D"/>
</linearGradient>
<linearGradient id="paint11_linear" x1="185.588" y1="175.95" x2="366.41" y2="-4.87216" gradientUnits="userSpaceOnUse">
<stop stop-color="#FFAB67"/>
<stop offset="0.0554" stop-color="#FF9F6C"/>
<stop offset="0.3301" stop-color="#FF6784"/>
<stop offset="0.4627" stop-color="#FF518D"/>
<stop offset="1" stop-color="#5E309D"/>
</linearGradient>
<linearGradient id="paint12_linear" x1="180.904" y1="180.635" x2="371.096" y2="-9.55712" gradientUnits="userSpaceOnUse">
<stop stop-color="#FFAB67"/>
<stop offset="0.0554" stop-color="#FF9F6C"/>
<stop offset="0.3301" stop-color="#FF6784"/>
<stop offset="0.4627" stop-color="#FF518D"/>
<stop offset="1" stop-color="#5E309D"/>
</linearGradient>
<linearGradient id="paint13_linear" x1="176.219" y1="185.32" x2="375.781" y2="-14.2421" gradientUnits="userSpaceOnUse">
<stop stop-color="#FFAB67"/>
<stop offset="0.0554" stop-color="#FF9F6C"/>
<stop offset="0.3301" stop-color="#FF6784"/>
<stop offset="0.4627" stop-color="#FF518D"/>
<stop offset="1" stop-color="#5E309D"/>
</linearGradient>
<linearGradient id="paint14_linear" x1="171.534" y1="190.005" x2="380.467" y2="-18.927" gradientUnits="userSpaceOnUse">
<stop stop-color="#FFAB67"/>
<stop offset="0.0554" stop-color="#FF9F6C"/>
<stop offset="0.3301" stop-color="#FF6784"/>
<stop offset="0.4627" stop-color="#FF518D"/>
<stop offset="1" stop-color="#5E309D"/>
</linearGradient>
<linearGradient id="paint15_linear" x1="166.848" y1="194.691" x2="385.151" y2="-23.612" gradientUnits="userSpaceOnUse">
<stop stop-color="#FFAB67"/>
<stop offset="0.0554" stop-color="#FF9F6C"/>
<stop offset="0.3301" stop-color="#FF6784"/>
<stop offset="0.4627" stop-color="#FF518D"/>
<stop offset="1" stop-color="#5E309D"/>
</linearGradient>
<linearGradient id="paint16_linear" x1="162.164" y1="199.376" x2="389.837" y2="-28.297" gradientUnits="userSpaceOnUse">
<stop stop-color="#FFAB67"/>
<stop offset="0.0554" stop-color="#FF9F6C"/>
<stop offset="0.3301" stop-color="#FF6784"/>
<stop offset="0.4627" stop-color="#FF518D"/>
<stop offset="1" stop-color="#5E309D"/>
</linearGradient>
<linearGradient id="paint17_linear" x1="157.479" y1="204.06" x2="394.522" y2="-32.9823" gradientUnits="userSpaceOnUse">
<stop stop-color="#FFAB67"/>
<stop offset="0.0554" stop-color="#FF9F6C"/>
<stop offset="0.3301" stop-color="#FF6784"/>
<stop offset="0.4627" stop-color="#FF518D"/>
<stop offset="1" stop-color="#5E309D"/>
</linearGradient>
<linearGradient id="paint18_linear" x1="152.793" y1="208.746" x2="399.206" y2="-37.6673" gradientUnits="userSpaceOnUse">
<stop stop-color="#FFAB67"/>
<stop offset="0.0554" stop-color="#FF9F6C"/>
<stop offset="0.3301" stop-color="#FF6784"/>
<stop offset="0.4627" stop-color="#FF518D"/>
<stop offset="1" stop-color="#5E309D"/>
</linearGradient>
<linearGradient id="paint19_linear" x1="148.109" y1="213.431" x2="403.892" y2="-42.3523" gradientUnits="userSpaceOnUse">
<stop stop-color="#FFAB67"/>
<stop offset="0.0554" stop-color="#FF9F6C"/>
<stop offset="0.3301" stop-color="#FF6784"/>
<stop offset="0.4627" stop-color="#FF518D"/>
<stop offset="1" stop-color="#5E309D"/>
</linearGradient>
<linearGradient id="paint20_linear" x1="143.424" y1="218.116" x2="408.577" y2="-47.0369" gradientUnits="userSpaceOnUse">
<stop stop-color="#FFAB67"/>
<stop offset="0.0554" stop-color="#FF9F6C"/>
<stop offset="0.3301" stop-color="#FF6784"/>
<stop offset="0.4627" stop-color="#FF518D"/>
<stop offset="1" stop-color="#5E309D"/>
</linearGradient>
<linearGradient id="paint21_linear" x1="138.738" y1="222.801" x2="413.261" y2="-51.7221" gradientUnits="userSpaceOnUse">
<stop stop-color="#FFAB67"/>
<stop offset="0.0554" stop-color="#FF9F6C"/>
<stop offset="0.3301" stop-color="#FF6784"/>
<stop offset="0.4627" stop-color="#FF518D"/>
<stop offset="1" stop-color="#5E309D"/>
</linearGradient>
<linearGradient id="paint22_linear" x1="134.053" y1="227.486" x2="417.947" y2="-56.4074" gradientUnits="userSpaceOnUse">
<stop stop-color="#FFAB67"/>
<stop offset="0.0554" stop-color="#FF9F6C"/>
<stop offset="0.3301" stop-color="#FF6784"/>
<stop offset="0.4627" stop-color="#FF518D"/>
<stop offset="1" stop-color="#5E309D"/>
</linearGradient>
<linearGradient id="paint23_linear" x1="129.369" y1="232.171" x2="422.632" y2="-61.0926" gradientUnits="userSpaceOnUse">
<stop stop-color="#FFAB67"/>
<stop offset="0.0554" stop-color="#FF9F6C"/>
<stop offset="0.3301" stop-color="#FF6784"/>
<stop offset="0.4627" stop-color="#FF518D"/>
<stop offset="1" stop-color="#5E309D"/>
</linearGradient>
<linearGradient id="paint24_linear" x1="124.683" y1="236.856" x2="427.316" y2="-65.7773" gradientUnits="userSpaceOnUse">
<stop stop-color="#FFAB67"/>
<stop offset="0.0554" stop-color="#FF9F6C"/>
<stop offset="0.3301" stop-color="#FF6784"/>
<stop offset="0.4627" stop-color="#FF518D"/>
<stop offset="1" stop-color="#5E309D"/>
</linearGradient>
<linearGradient id="paint25_linear" x1="119.998" y1="241.541" x2="432.002" y2="-70.4626" gradientUnits="userSpaceOnUse">
<stop stop-color="#FFAB67"/>
<stop offset="0.0554" stop-color="#FF9F6C"/>
<stop offset="0.3301" stop-color="#FF6784"/>
<stop offset="0.4627" stop-color="#FF518D"/>
<stop offset="1" stop-color="#5E309D"/>
</linearGradient>
<linearGradient id="paint26_linear" x1="115.314" y1="246.226" x2="436.687" y2="-75.148" gradientUnits="userSpaceOnUse">
<stop stop-color="#FFAB67"/>
<stop offset="0.0554" stop-color="#FF9F6C"/>
<stop offset="0.3301" stop-color="#FF6784"/>
<stop offset="0.4627" stop-color="#FF518D"/>
<stop offset="1" stop-color="#5E309D"/>
</linearGradient>
<linearGradient id="paint27_linear" x1="110.628" y1="250.911" x2="441.371" y2="-79.8328" gradientUnits="userSpaceOnUse">
<stop stop-color="#FFAB67"/>
<stop offset="0.0554" stop-color="#FF9F6C"/>
<stop offset="0.3301" stop-color="#FF6784"/>
<stop offset="0.4627" stop-color="#FF518D"/>
<stop offset="1" stop-color="#5E309D"/>
</linearGradient>
<linearGradient id="paint28_linear" x1="105.943" y1="255.596" x2="446.057" y2="-84.5177" gradientUnits="userSpaceOnUse">
<stop stop-color="#FFAB67"/>
<stop offset="0.0554" stop-color="#FF9F6C"/>
<stop offset="0.3301" stop-color="#FF6784"/>
<stop offset="0.4627" stop-color="#FF518D"/>
<stop offset="1" stop-color="#5E309D"/>
</linearGradient>
<linearGradient id="paint29_linear" x1="101.258" y1="260.281" x2="450.742" y2="-89.2027" gradientUnits="userSpaceOnUse">
<stop stop-color="#FFAB67"/>
<stop offset="0.0554" stop-color="#FF9F6C"/>
<stop offset="0.3301" stop-color="#FF6784"/>
<stop offset="0.4627" stop-color="#FF518D"/>
<stop offset="1" stop-color="#5E309D"/>
</linearGradient>
<linearGradient id="paint30_linear" x1="96.5727" y1="264.966" x2="455.427" y2="-93.8879" gradientUnits="userSpaceOnUse">
<stop stop-color="#FFAB67"/>
<stop offset="0.0554" stop-color="#FF9F6C"/>
<stop offset="0.3301" stop-color="#FF6784"/>
<stop offset="0.4627" stop-color="#FF518D"/>
<stop offset="1" stop-color="#5E309D"/>
</linearGradient>
<linearGradient id="paint31_linear" x1="91.8877" y1="269.651" x2="460.112" y2="-98.573" gradientUnits="userSpaceOnUse">
<stop stop-color="#FFAB67"/>
<stop offset="0.0554" stop-color="#FF9F6C"/>
<stop offset="0.3301" stop-color="#FF6784"/>
<stop offset="0.4627" stop-color="#FF518D"/>
<stop offset="1" stop-color="#5E309D"/>
</linearGradient>
<linearGradient id="paint32_linear" x1="87.203" y1="274.336" x2="464.797" y2="-103.258" gradientUnits="userSpaceOnUse">
<stop stop-color="#FFAB67"/>
<stop offset="0.0554" stop-color="#FF9F6C"/>
<stop offset="0.3301" stop-color="#FF6784"/>
<stop offset="0.4627" stop-color="#FF518D"/>
<stop offset="1" stop-color="#5E309D"/>
</linearGradient>
<linearGradient id="paint33_linear" x1="82.5185" y1="279.021" x2="469.483" y2="-107.943" gradientUnits="userSpaceOnUse">
<stop stop-color="#FFAB67"/>
<stop offset="0.0554" stop-color="#FF9F6C"/>
<stop offset="0.3301" stop-color="#FF6784"/>
<stop offset="0.4627" stop-color="#FF518D"/>
<stop offset="1" stop-color="#5E309D"/>
</linearGradient>
<linearGradient id="paint34_linear" x1="77.8325" y1="283.706" x2="474.167" y2="-112.628" gradientUnits="userSpaceOnUse">
<stop stop-color="#FFAB67"/>
<stop offset="0.0554" stop-color="#FF9F6C"/>
<stop offset="0.3301" stop-color="#FF6784"/>
<stop offset="0.4627" stop-color="#FF518D"/>
<stop offset="1" stop-color="#5E309D"/>
</linearGradient>
<linearGradient id="paint35_linear" x1="73.148" y1="288.391" x2="478.852" y2="-117.313" gradientUnits="userSpaceOnUse">
<stop stop-color="#FFAB67"/>
<stop offset="0.0554" stop-color="#FF9F6C"/>
<stop offset="0.3301" stop-color="#FF6784"/>
<stop offset="0.4627" stop-color="#FF518D"/>
<stop offset="1" stop-color="#5E309D"/>
</linearGradient>
<linearGradient id="paint36_linear" x1="68.4632" y1="293.077" x2="483.538" y2="-121.998" gradientUnits="userSpaceOnUse">
<stop stop-color="#FFAB67"/>
<stop offset="0.0554" stop-color="#FF9F6C"/>
<stop offset="0.3301" stop-color="#FF6784"/>
<stop offset="0.4627" stop-color="#FF518D"/>
<stop offset="1" stop-color="#5E309D"/>
</linearGradient>
<linearGradient id="paint37_linear" x1="63.7774" y1="297.762" x2="488.222" y2="-126.683" gradientUnits="userSpaceOnUse">
<stop stop-color="#FFAB67"/>
<stop offset="0.0554" stop-color="#FF9F6C"/>
<stop offset="0.3301" stop-color="#FF6784"/>
<stop offset="0.4627" stop-color="#FF518D"/>
<stop offset="1" stop-color="#5E309D"/>
</linearGradient>
<linearGradient id="paint38_linear" x1="59.0926" y1="302.447" x2="492.907" y2="-131.368" gradientUnits="userSpaceOnUse">
<stop stop-color="#FFAB67"/>
<stop offset="0.0554" stop-color="#FF9F6C"/>
<stop offset="0.3301" stop-color="#FF6784"/>
<stop offset="0.4627" stop-color="#FF518D"/>
<stop offset="1" stop-color="#5E309D"/>
</linearGradient>
</defs>
</svg>
