<svg width="333" height="138" viewBox="0 0 333 138" fill="none" xmlns="http://www.w3.org/2000/svg">
<g filter="url(#filter0_d)">
<path fill-rule="evenodd" clip-rule="evenodd" d="M148.504 81.0864C149.288 81.0864 150.067 81.1873 150.852 81.1819C154.75 81.176 158.563 80.0391 161.826 77.9096C168.245 73.6911 171.284 66.4404 171.284 58.9333C171.284 51.5707 168.374 44.4454 162.151 40.1915C158.737 37.8812 154.698 36.662 150.573 36.6956C150.127 36.6956 149.682 36.6956 149.239 36.7174C148.9 36.7214 148.562 36.7433 148.225 36.7829H148.187C146.895 36.911 144.971 37.1756 144.088 38.2527C143.58 38.8771 143.386 39.7524 143.285 40.5296C143.138 41.9408 143.084 43.3599 143.121 44.7781V73.0803C143.084 74.5058 143.138 75.9322 143.285 77.3506C143.391 78.1332 143.585 79.0249 144.104 79.6494C145.042 80.7783 147.143 80.9855 148.504 81.07V81.0864ZM131.911 82.5153L132.747 82.4226H132.772C133.496 82.3881 134.196 82.1478 134.788 81.73C135.529 81.1846 135.797 80.3665 135.797 79.4748V38.3317C135.82 37.9064 135.74 37.4818 135.563 37.0939C135.387 36.7061 135.119 36.3665 134.783 36.1039C134.203 35.6823 133.515 35.4336 132.799 35.3867H131.979C130.993 35.3867 130.274 34.7813 130.274 33.7779C130.272 33.4969 130.356 33.222 130.514 32.9898C130.987 32.3108 131.881 32.2753 132.63 32.3653C133.947 32.4199 135.272 32.4471 136.592 32.4744C138.166 32.5099 139.754 32.5535 141.328 32.5535C141.874 32.5535 142.421 32.5344 142.968 32.5235L146.017 32.4635L150.759 32.3626H150.786C159.296 32.4144 167.674 35.6648 173.23 42.2475C177.217 46.9732 179.196 52.7978 179.196 58.9551C179.196 65.1124 177.22 70.9234 173.23 75.6436C167.696 82.1881 159.353 85.444 150.887 85.5503H150.846L142.951 85.3049C142.405 85.3049 141.858 85.264 141.336 85.264C140.749 85.264 140.156 85.2885 139.568 85.3049C138.581 85.3322 137.595 85.364 136.611 85.4003C135.275 85.444 133.936 85.4903 132.6 85.5503H132.559C131.884 85.5503 131.127 85.5503 130.646 85.0049C130.41 84.7369 130.284 84.3904 130.293 84.0342C130.266 83.0907 131.025 82.5508 131.911 82.5262V82.5153Z" fill="white"/>
<path fill-rule="evenodd" clip-rule="evenodd" d="M198.902 35.1958L198.065 35.2886H198.041C197.316 35.324 196.617 35.5642 196.024 35.9812C195.283 36.5402 195.016 37.3446 195.016 38.2527V79.5648C194.992 79.9925 195.072 80.4194 195.249 80.8095C195.426 81.1997 195.695 81.5416 196.032 81.8063C196.611 82.2291 197.298 82.4788 198.013 82.5262H198.833C199.82 82.5262 200.538 83.1316 200.538 84.1324C200.541 84.4142 200.457 84.6901 200.298 84.9231C199.825 85.6021 198.932 85.6348 198.18 85.5476C196.866 85.4794 195.54 85.4467 194.226 85.4167C192.911 85.3867 191.635 85.3595 190.343 85.3595C188.43 85.3595 186.438 85.4085 184.519 85.5449C183.773 85.6348 182.879 85.6048 182.393 84.9231C182.232 84.691 182.147 84.4147 182.15 84.1324C182.15 83.1316 182.871 82.5262 183.858 82.5262H184.656C186.347 82.2999 187.684 81.4355 187.684 79.5648V38.2527C187.707 37.825 187.627 37.398 187.45 37.0078C187.273 36.6176 187.005 36.2757 186.667 36.0112C186.088 35.5883 185.399 35.3386 184.683 35.2913H183.863C182.874 35.2913 182.155 34.6859 182.155 33.6824C182.153 33.401 182.238 33.1257 182.398 32.8944C182.866 32.2208 183.765 32.1826 184.492 32.2672C185.779 32.2672 187.104 32.3681 188.391 32.4444C189.05 32.4826 189.711 32.5208 190.37 32.5535C191.649 32.5535 192.941 32.4962 194.215 32.439C195.488 32.3817 196.866 32.3135 198.169 32.1663H198.268C198.943 32.1663 199.7 32.1663 200.181 32.7116C200.415 32.9802 200.541 33.3263 200.533 33.6824C200.547 34.6314 199.79 35.1713 198.902 35.1958Z" fill="white"/>
<path fill-rule="evenodd" clip-rule="evenodd" d="M91.6984 85.5475C90.9524 85.6348 90.0588 85.6021 89.5833 84.9231C89.4231 84.6906 89.339 84.4144 89.3428 84.1323C89.3428 83.1315 90.0615 82.5262 91.048 82.5262H91.846C93.5376 82.2998 94.8739 81.4354 94.8739 79.5648V38.1735C94.8739 36.2974 93.5485 35.4221 91.846 35.1958H91.048C90.0615 35.1958 89.3428 34.5904 89.3428 33.5896C89.339 33.3076 89.4231 33.0313 89.5833 32.7989C90.056 32.1199 90.9497 32.0844 91.6984 32.1744C93.0211 32.2317 94.3465 32.278 95.6718 32.3217L98.6287 32.4171C99.2135 32.4335 99.8092 32.458 100.397 32.458C101.31 32.458 102.233 32.428 103.146 32.4116L114.686 32.218C115.58 32.2017 116.484 32.1717 117.375 32.1717C119.273 32.2133 121.171 32.1568 123.062 32.0026C124.021 31.8554 124.83 32.2753 124.89 33.2924C124.947 33.621 124.986 33.9523 125.008 34.285C125.079 34.9994 125.164 35.7084 125.265 36.4201V36.4529C125.344 37.2164 125.462 37.9799 125.579 38.7352C125.686 39.4142 125.798 40.0987 125.91 40.7668C125.986 41.2385 126.071 41.7212 126.123 42.1929C126.205 42.9537 126.238 43.9627 125.421 44.3554C125.296 44.4164 125.162 44.4543 125.024 44.4671C124.78 44.5134 124.528 44.4858 124.3 44.3881C123.628 44.0936 123.48 43.3491 123.316 42.7138V42.6456C123.1 41.4022 121.95 39.8369 121.073 38.9643C119.78 37.6691 118.094 36.6819 116.219 36.6383H107.188C102.99 36.8046 102.375 38.1817 102.198 42.1275V56.2663C104.038 56.2663 105.876 56.2554 107.712 56.2336C109.03 56.2336 110.349 56.2064 111.667 56.1764C112.153 56.1764 112.64 56.1545 113.126 56.1327C113.399 56.1327 113.672 56.1164 113.921 56.0837C114.593 56.0019 115.73 55.9146 116.329 55.5901C116.448 55.5258 116.558 55.448 116.659 55.3583C117.206 54.9056 117.479 54.1857 118.299 54.1857C119.119 54.1857 119.624 54.9302 119.624 55.6992C119.587 56.1886 119.507 56.6739 119.387 57.1498C119.228 57.9847 119.116 58.8277 119.051 59.6749C119.001 60.2912 118.957 60.9075 118.917 61.5238C118.878 62.0691 118.843 62.6145 118.81 63.1599C118.791 63.4871 118.766 63.8307 118.766 64.1579C118.766 64.3597 118.766 64.5615 118.747 64.7633C118.682 65.5814 118.307 66.4294 117.345 66.4294C116.383 66.4294 115.927 65.6986 115.927 64.8233C115.96 64.152 115.88 63.48 115.689 62.8354V62.7863C115.601 62.3795 115.385 62.0111 115.074 61.7337C114.506 61.2565 113.588 61.0765 112.875 61.0002H112.834C112.118 60.9147 111.398 60.8673 110.677 60.8584C109.538 60.8148 108.396 60.793 107.256 60.7739C105.563 60.7466 103.873 60.7302 102.184 60.7248V75.0054C102.211 76.3525 102.247 78.5695 103.151 79.6629C104.056 80.7564 106.201 81.0264 107.57 81.1164H117.709C119.2 81.0334 120.611 80.4133 121.679 79.3712C122.143 78.9249 122.565 78.4386 122.942 77.9177C123.428 77.2606 124.251 76.028 124.467 75.2427L124.491 75.1527L124.532 75.0682C124.871 74.3946 125.303 73.7865 126.139 73.7865H126.292L126.437 73.8356C127.309 74.1247 127.511 75.06 127.35 75.8644C127.312 76.058 127.243 76.2625 127.186 76.4507C127.088 76.7752 126.984 77.0997 126.877 77.4242C126.582 78.3213 126.273 79.2185 125.951 80.1074C125.558 81.2399 125.101 82.3497 124.584 83.4315V83.4479C124.09 84.3504 123.251 84.8413 122.286 85.1276C120.846 85.5557 119.031 85.583 117.539 85.5557C115.39 85.5157 113.24 85.4785 111.09 85.4439L103.829 85.3239C102.681 85.3049 101.531 85.2748 100.386 85.2694C99.7983 85.2694 99.2026 85.2939 98.6177 85.3103C97.6303 85.3376 96.6447 85.3694 95.6609 85.4057C94.3465 85.4494 93.0211 85.4903 91.6984 85.5475Z" fill="white"/>
<path fill-rule="evenodd" clip-rule="evenodd" d="M69.1506 82.5262L70.077 82.4335H70.0906C70.2876 82.4247 70.4777 82.3584 70.6372 82.2426C71.6101 81.5037 71.4188 78.7659 71.3012 77.7133C71.2193 76.9743 71.0963 76.2408 70.9487 75.5127L63.9611 49.422L52.7568 77.4352L52.7021 77.517C52.5848 77.706 52.4825 77.9038 52.3961 78.1087C54.4101 81.9072 56.8095 85.8448 59.7472 88.9835C62.0017 91.3913 64.688 93.4283 67.9454 94.2573C71.2029 95.0862 74.3838 94.5763 77.4499 93.4392L77.4991 93.4201H77.551C77.764 93.3671 77.9861 93.3615 78.2014 93.4038C78.4396 93.4402 78.6639 93.5388 78.8516 93.6897C79.0392 93.8405 79.1836 94.0382 79.27 94.2627C79.5159 94.988 79.0267 95.5852 78.4283 95.9152H78.39C72.7523 98.6993 66.5299 99.1411 60.7064 96.5996C52.0572 92.8284 46.4168 83.557 42.8588 75.2618L32.0781 50.1337C31.8467 49.5883 31.6017 49.0502 31.343 48.5194L26.0496 75.48V75.4991C25.7687 76.6541 25.5958 77.8326 25.5331 79.0195C25.4949 79.9193 25.4785 82.1418 26.5989 82.5262H27.3258C28.3123 82.5262 29.031 83.1316 29.031 84.1324C29.0334 84.4142 28.9495 84.6901 28.7906 84.9231C28.3178 85.6021 27.4242 85.6349 26.6754 85.5476C25.7326 85.5067 24.7898 85.4767 23.847 85.4494C22.4806 85.4085 21.0733 85.3595 19.6932 85.3595C18.7942 85.3595 17.8978 85.3377 16.996 85.3595C15.5695 85.3595 14.1403 85.4276 12.7193 85.5558C11.9213 85.6294 10.9594 85.6022 10.4456 84.8795C10.26 84.6064 10.1644 84.2823 10.1723 83.9524C10.1713 83.7876 10.2038 83.6243 10.268 83.4725C10.6998 82.4335 12.0525 82.5099 12.9625 82.3599H13.0035C16.5314 81.9318 18.54 78.215 19.256 75.09L26.976 41.4595C24.5165 38.5036 21.3821 36.7774 17.6847 38.8962L17.6355 38.9235L17.5863 38.9453C15.892 39.6706 14.7852 37.6964 16.3784 36.5538C18.7313 34.8713 21.4367 33.7751 24.3744 34.0151C31.8458 34.6287 36.8631 43.4583 39.5412 49.5038L49.3791 71.7387L61.4524 40.5024C61.7885 39.6352 62.0563 38.6972 62.3351 37.8082C62.8079 36.3221 63.297 34.8468 63.8299 33.3798C64.4092 31.79 66.15 31.79 66.7458 33.3798V33.4152L78.7699 75.0546C79.3847 77.0234 80.2291 79.813 81.8633 81.1819C82.6326 81.8068 83.5723 82.1868 84.5605 82.2726H84.6043C84.9267 82.3244 85.2492 82.3435 85.5744 82.409C86.3068 82.548 87.0091 82.8671 87.3206 83.5897L87.3944 83.7697V83.9606C87.3964 84.1696 87.3545 84.3768 87.2714 84.5687C86.8506 85.5476 85.6673 85.6594 84.7464 85.564C83.8254 85.4685 82.9072 85.4304 81.989 85.3922C80.1417 85.3131 78.2862 85.2831 76.4361 85.2831C75.0861 85.2831 73.7033 85.3431 72.3534 85.4058C71.5171 85.4467 70.6754 85.4931 69.8392 85.5667H69.7736C69.1506 85.5667 68.5002 85.5667 68.0001 85.1358C67.7315 84.8945 67.5573 84.566 67.5082 84.2087L67.4945 84.1324V84.0533C67.4973 83.088 68.2597 82.5481 69.1506 82.5262Z" fill="white"/>
<path d="M105.76 106.345C105.91 106.345 106.03 106.391 106.122 106.482C106.226 106.574 106.277 106.695 106.277 106.844C106.277 106.993 106.226 107.119 106.122 107.222C106.03 107.314 105.91 107.36 105.76 107.36H99.6051C99.4557 107.36 99.3293 107.314 99.2258 107.222C99.1339 107.119 99.0879 106.993 99.0879 106.844V95.8333C99.0879 95.6842 99.1396 95.5638 99.2431 95.472C99.3465 95.3688 99.4787 95.3172 99.6396 95.3172C99.789 95.3172 99.9155 95.3688 100.019 95.472C100.122 95.5638 100.174 95.6842 100.174 95.8333V106.345H105.76Z" fill="white"/>
<path d="M114.591 98.6203C114.741 98.6203 114.862 98.6719 114.953 98.7751C115.057 98.8669 115.109 98.9873 115.109 99.1364V103.988C115.109 105.112 114.793 105.978 114.16 106.586C113.528 107.182 112.655 107.48 111.54 107.48C110.436 107.48 109.569 107.182 108.936 106.586C108.316 105.978 108.005 105.112 108.005 103.988V99.1364C108.005 98.9873 108.051 98.8669 108.143 98.7751C108.247 98.6719 108.373 98.6203 108.523 98.6203C108.672 98.6203 108.793 98.6719 108.885 98.7751C108.988 98.8669 109.04 98.9873 109.04 99.1364V103.988C109.04 104.814 109.258 105.445 109.695 105.88C110.132 106.305 110.747 106.517 111.54 106.517C112.344 106.517 112.965 106.305 113.402 105.88C113.85 105.445 114.074 104.814 114.074 103.988V99.1364C114.074 98.9873 114.12 98.8669 114.212 98.7751C114.316 98.6719 114.442 98.6203 114.591 98.6203Z" fill="white"/>
<path d="M125.959 102.956C125.959 103.816 125.769 104.596 125.39 105.295C125.011 105.995 124.488 106.546 123.821 106.947C123.154 107.337 122.413 107.532 121.597 107.532C120.781 107.532 120.04 107.337 119.373 106.947C118.706 106.546 118.183 105.995 117.804 105.295C117.425 104.596 117.235 103.816 117.235 102.956C117.235 102.095 117.425 101.316 117.804 100.616C118.183 99.9163 118.706 99.3658 119.373 98.9644C120.04 98.563 120.781 98.3623 121.597 98.3623C122.413 98.3623 123.154 98.563 123.821 98.9644C124.488 99.3658 125.011 99.9163 125.39 100.616C125.769 101.316 125.959 102.095 125.959 102.956ZM124.925 102.956C124.925 102.268 124.781 101.648 124.493 101.098C124.206 100.547 123.804 100.117 123.287 99.8074C122.781 99.4862 122.218 99.3257 121.597 99.3257C120.976 99.3257 120.413 99.4862 119.907 99.8074C119.402 100.117 118.999 100.547 118.701 101.098C118.413 101.648 118.27 102.268 118.27 102.956C118.27 103.632 118.413 104.246 118.701 104.796C118.999 105.347 119.402 105.783 119.907 106.104C120.413 106.414 120.976 106.568 121.597 106.568C122.218 106.568 122.781 106.414 123.287 106.104C123.804 105.794 124.206 105.364 124.493 104.814C124.781 104.263 124.925 103.644 124.925 102.956ZM123.58 96.7795C123.66 96.8712 123.7 96.9687 123.7 97.072C123.7 97.1293 123.672 97.1866 123.614 97.244C123.568 97.3013 123.505 97.33 123.425 97.33C123.333 97.33 123.258 97.3128 123.2 97.2784C123.143 97.244 123.062 97.1809 122.959 97.0892L121.597 96.0053L120.287 97.1064C120.264 97.1178 120.218 97.1522 120.149 97.2096C120.091 97.2555 120.04 97.2899 119.994 97.3128C119.948 97.3358 119.896 97.3472 119.838 97.3472C119.758 97.3472 119.689 97.3186 119.632 97.2612C119.574 97.2039 119.545 97.1408 119.545 97.072C119.545 96.9802 119.591 96.8885 119.683 96.7967L120.942 95.4204C121.068 95.2254 121.258 95.1279 121.511 95.1279H121.787C121.925 95.1279 122.034 95.1509 122.114 95.1967C122.195 95.2311 122.269 95.3057 122.338 95.4204L123.58 96.7795Z" fill="white"/>
<path d="M132.23 98.3623C133.299 98.3623 134.08 98.6777 134.575 99.3085C135.08 99.9278 135.333 100.754 135.333 101.786V106.844C135.333 106.993 135.282 107.119 135.178 107.222C135.075 107.314 134.954 107.36 134.816 107.36C134.667 107.36 134.54 107.314 134.437 107.222C134.345 107.119 134.299 106.993 134.299 106.844V101.837C134.299 101.092 134.109 100.49 133.73 100.031C133.362 99.5608 132.787 99.3257 132.006 99.3257C131.512 99.3257 131.04 99.4404 130.592 99.6697C130.155 99.8991 129.799 100.209 129.523 100.599C129.247 100.977 129.109 101.39 129.109 101.837V106.844C129.109 106.993 129.058 107.119 128.954 107.222C128.862 107.314 128.742 107.36 128.592 107.36C128.443 107.36 128.316 107.314 128.213 107.222C128.121 107.119 128.075 106.993 128.075 106.844V99.1364C128.075 98.9873 128.121 98.8669 128.213 98.7751C128.316 98.6719 128.443 98.6203 128.592 98.6203C128.742 98.6203 128.862 98.6719 128.954 98.7751C129.058 98.8669 129.109 98.9873 129.109 99.1364V100.083C129.42 99.5895 129.862 99.1823 130.437 98.8612C131.023 98.5285 131.621 98.3623 132.23 98.3623Z" fill="white"/>
<path d="M149.912 98.5687C150.061 98.5687 150.182 98.6203 150.274 98.7235C150.377 98.8268 150.429 98.9529 150.429 99.102V106.844C150.429 106.993 150.377 107.119 150.274 107.222C150.182 107.314 150.061 107.36 149.912 107.36C149.762 107.36 149.636 107.314 149.532 107.222C149.44 107.119 149.394 106.993 149.394 106.844V105.691C149.107 106.207 148.676 106.643 148.101 106.999C147.527 107.354 146.9 107.532 146.222 107.532C145.452 107.532 144.757 107.331 144.136 106.93C143.527 106.528 143.044 105.978 142.688 105.278C142.343 104.579 142.17 103.793 142.17 102.921C142.17 102.05 142.349 101.27 142.705 100.582C143.061 99.8819 143.544 99.3371 144.153 98.9472C144.774 98.5572 145.458 98.3623 146.205 98.3623C146.894 98.3623 147.527 98.5285 148.101 98.8612C148.676 99.1938 149.107 99.6296 149.394 100.169V99.102C149.394 98.9529 149.44 98.8268 149.532 98.7235C149.636 98.6203 149.762 98.5687 149.912 98.5687ZM146.326 106.568C146.923 106.568 147.458 106.414 147.929 106.104C148.412 105.783 148.785 105.347 149.05 104.796C149.325 104.234 149.463 103.609 149.463 102.921C149.463 102.256 149.325 101.648 149.05 101.098C148.785 100.547 148.412 100.117 147.929 99.8074C147.458 99.4862 146.923 99.3257 146.326 99.3257C145.728 99.3257 145.188 99.4805 144.705 99.7902C144.234 100.1 143.86 100.53 143.584 101.08C143.32 101.62 143.188 102.233 143.188 102.921C143.188 103.609 143.32 104.234 143.584 104.796C143.849 105.347 144.216 105.783 144.688 106.104C145.17 106.414 145.716 106.568 146.326 106.568ZM148.394 96.8999C148.475 96.9917 148.515 97.0892 148.515 97.1924C148.515 97.2497 148.486 97.3071 148.429 97.3644C148.383 97.4218 148.32 97.4504 148.239 97.4504C148.147 97.4504 148.073 97.4332 148.015 97.3988C147.958 97.3644 147.877 97.3013 147.774 97.2096L146.412 96.1257L145.101 97.2268C145.078 97.2383 145.032 97.2727 144.963 97.33C144.906 97.3759 144.854 97.4103 144.808 97.4332C144.762 97.4562 144.711 97.4676 144.653 97.4676C144.573 97.4676 144.504 97.439 144.446 97.3816C144.389 97.3243 144.36 97.2612 144.36 97.1924C144.36 97.1006 144.406 97.0089 144.498 96.9171L145.757 95.5408C145.883 95.3458 146.073 95.2483 146.326 95.2483H146.601C146.739 95.2483 146.848 95.2713 146.929 95.3172C147.009 95.3516 147.084 95.4261 147.153 95.5408L148.394 96.8999Z" fill="white"/>
<path d="M157.283 98.3623C158.352 98.3623 159.134 98.6777 159.628 99.3085C160.134 99.9278 160.387 100.754 160.387 101.786V106.844C160.387 106.993 160.335 107.119 160.231 107.222C160.128 107.314 160.007 107.36 159.869 107.36C159.72 107.36 159.593 107.314 159.49 107.222C159.398 107.119 159.352 106.993 159.352 106.844V101.837C159.352 101.092 159.162 100.49 158.783 100.031C158.415 99.5608 157.841 99.3257 157.059 99.3257C156.565 99.3257 156.094 99.4404 155.645 99.6697C155.209 99.8991 154.852 100.209 154.576 100.599C154.301 100.977 154.163 101.39 154.163 101.837V106.844C154.163 106.993 154.111 107.119 154.007 107.222C153.915 107.314 153.795 107.36 153.645 107.36C153.496 107.36 153.369 107.314 153.266 107.222C153.174 107.119 153.128 106.993 153.128 106.844V99.1364C153.128 98.9873 153.174 98.8669 153.266 98.7751C153.369 98.6719 153.496 98.6203 153.645 98.6203C153.795 98.6203 153.915 98.6719 154.007 98.7751C154.111 98.8669 154.163 98.9873 154.163 99.1364V100.083C154.473 99.5895 154.915 99.1823 155.49 98.8612C156.076 98.5285 156.674 98.3623 157.283 98.3623Z" fill="white"/>
<path d="M171.62 98.3623C172.16 98.3623 172.66 98.4253 173.12 98.5515C173.591 98.6662 173.965 98.8268 174.241 99.0332C174.528 99.2396 174.672 99.4633 174.672 99.7041C174.672 99.8303 174.626 99.945 174.534 100.048C174.453 100.151 174.35 100.203 174.223 100.203C174.109 100.203 174.011 100.18 173.93 100.134C173.861 100.088 173.781 100.02 173.689 99.9278C173.54 99.7787 173.396 99.6697 173.258 99.6009C173.086 99.5206 172.856 99.4576 172.568 99.4117C172.292 99.3543 171.994 99.3257 171.672 99.3257C171.04 99.3257 170.459 99.4862 169.93 99.8074C169.413 100.129 169.005 100.564 168.706 101.115C168.408 101.665 168.258 102.273 168.258 102.938C168.258 103.627 168.402 104.246 168.689 104.796C168.976 105.347 169.373 105.783 169.879 106.104C170.396 106.414 170.982 106.568 171.637 106.568C172.051 106.568 172.379 106.534 172.62 106.465C172.873 106.396 173.12 106.299 173.361 106.173C173.442 106.127 173.58 106.024 173.775 105.863C173.867 105.783 173.948 105.726 174.017 105.691C174.086 105.645 174.16 105.622 174.241 105.622C174.379 105.622 174.488 105.668 174.568 105.76C174.649 105.84 174.689 105.949 174.689 106.087C174.689 106.282 174.551 106.494 174.275 106.723C173.999 106.941 173.62 107.13 173.137 107.291C172.655 107.452 172.12 107.532 171.534 107.532C170.695 107.532 169.948 107.337 169.293 106.947C168.637 106.546 168.126 105.995 167.758 105.295C167.402 104.596 167.224 103.81 167.224 102.938C167.224 102.101 167.408 101.339 167.775 100.65C168.143 99.9507 168.66 99.3945 169.327 98.9816C169.994 98.5687 170.758 98.3623 171.62 98.3623Z" fill="white"/>
<path d="M183.821 98.5687C183.97 98.5687 184.091 98.6203 184.183 98.7235C184.287 98.8268 184.338 98.9529 184.338 99.102V106.844C184.338 106.993 184.287 107.119 184.183 107.222C184.091 107.314 183.97 107.36 183.821 107.36C183.672 107.36 183.545 107.314 183.442 107.222C183.35 107.119 183.304 106.993 183.304 106.844V105.691C183.016 106.207 182.585 106.643 182.011 106.999C181.436 107.354 180.81 107.532 180.131 107.532C179.361 107.532 178.666 107.331 178.045 106.93C177.436 106.528 176.953 105.978 176.597 105.278C176.252 104.579 176.08 103.793 176.08 102.921C176.08 102.05 176.258 101.27 176.614 100.582C176.971 99.8819 177.453 99.3371 178.063 98.9472C178.683 98.5572 179.367 98.3623 180.114 98.3623C180.804 98.3623 181.436 98.5285 182.011 98.8612C182.585 99.1938 183.016 99.6296 183.304 100.169V99.102C183.304 98.9529 183.35 98.8268 183.442 98.7235C183.545 98.6203 183.672 98.5687 183.821 98.5687ZM180.235 106.568C180.833 106.568 181.367 106.414 181.838 106.104C182.321 105.783 182.695 105.347 182.959 104.796C183.235 104.234 183.373 103.609 183.373 102.921C183.373 102.256 183.235 101.648 182.959 101.098C182.695 100.547 182.321 100.117 181.838 99.8074C181.367 99.4862 180.833 99.3257 180.235 99.3257C179.637 99.3257 179.097 99.4805 178.614 99.7902C178.143 100.1 177.769 100.53 177.494 101.08C177.229 101.62 177.097 102.233 177.097 102.921C177.097 103.609 177.229 104.234 177.494 104.796C177.758 105.347 178.126 105.783 178.597 106.104C179.08 106.414 179.626 106.568 180.235 106.568ZM182.062 96.9687C182.143 97.0605 182.183 97.158 182.183 97.2612C182.183 97.3186 182.154 97.3759 182.097 97.4332C182.051 97.4906 181.988 97.5193 181.907 97.5193C181.815 97.5193 181.741 97.5021 181.683 97.4676C181.626 97.4332 181.545 97.3702 181.442 97.2784L180.08 96.1946L178.769 97.2956C178.746 97.3071 178.7 97.3415 178.632 97.3988C178.574 97.4447 178.522 97.4791 178.476 97.5021C178.43 97.525 178.379 97.5365 178.321 97.5365C178.241 97.5365 178.172 97.5078 178.114 97.4504C178.057 97.3931 178.028 97.33 178.028 97.2612C178.028 97.1694 178.074 97.0777 178.166 96.9859L179.425 95.6096C179.551 95.4147 179.741 95.3172 179.994 95.3172H180.269C180.407 95.3172 180.517 95.3401 180.597 95.386C180.677 95.4204 180.752 95.4949 180.821 95.6096L182.062 96.9687ZM182.356 95.7301C182.229 95.7301 182.085 95.6612 181.925 95.5236L180.562 94.2677C180.402 94.1416 180.321 93.9925 180.321 93.8204C180.321 93.6599 180.367 93.5394 180.459 93.4591C180.562 93.3674 180.689 93.3215 180.838 93.3215C181.045 93.3215 181.223 93.419 181.373 93.614L182.545 95.1451C182.637 95.2598 182.683 95.3516 182.683 95.4204C182.683 95.5121 182.649 95.5867 182.58 95.644C182.522 95.7014 182.447 95.7301 182.356 95.7301Z" fill="white"/>
<path d="M191.193 98.3623C192.262 98.3623 193.043 98.6777 193.537 99.3085C194.043 99.9278 194.296 100.754 194.296 101.786V106.844C194.296 106.993 194.244 107.119 194.141 107.222C194.037 107.314 193.917 107.36 193.779 107.36C193.629 107.36 193.503 107.314 193.399 107.222C193.307 107.119 193.261 106.993 193.261 106.844V101.837C193.261 101.092 193.072 100.49 192.693 100.031C192.325 99.5608 191.75 99.3257 190.968 99.3257C190.474 99.3257 190.003 99.4404 189.555 99.6697C189.118 99.8991 188.762 100.209 188.486 100.599C188.21 100.977 188.072 101.39 188.072 101.837V106.844C188.072 106.993 188.02 107.119 187.917 107.222C187.825 107.314 187.704 107.36 187.555 107.36C187.405 107.36 187.279 107.314 187.175 107.222C187.083 107.119 187.038 106.993 187.038 106.844V99.1364C187.038 98.9873 187.083 98.8669 187.175 98.7751C187.279 98.6719 187.405 98.6203 187.555 98.6203C187.704 98.6203 187.825 98.6719 187.917 98.7751C188.02 98.8669 188.072 98.9873 188.072 99.1364V100.083C188.382 99.5895 188.825 99.1823 189.4 98.8612C189.986 98.5285 190.583 98.3623 191.193 98.3623Z" fill="white"/>
<path fill-rule="evenodd" clip-rule="evenodd" d="M276.343 89.9888L276.343 70.2107L276.531 70.2107C280.481 70.2107 284.432 70.282 288.376 70.282C294.109 70.2786 299.655 68.2375 304.023 64.5232C308.391 60.8088 311.296 55.663 312.221 50.0045L312.279 49.6347C312.279 49.5179 312.312 49.4077 312.325 49.2974C312.338 49.1872 312.325 49.1158 312.325 49.0314C312.325 48.9471 312.325 48.8498 312.357 48.759C312.39 48.6682 312.357 48.5839 312.357 48.4931C312.357 48.4023 312.357 48.2725 312.39 48.1622C312.422 48.052 312.39 47.9028 312.39 47.773L312.39 47.4941C312.39 47.4033 312.39 47.3125 312.39 47.2217C312.39 47.1308 312.39 47.0335 312.39 46.9427C312.39 46.8519 312.39 46.7676 312.39 46.6768L312.39 82.9701C312.355 84.0355 312.057 85.0759 311.524 85.9991C310.992 86.9223 310.239 87.7 309.334 88.2633L268.351 111.92C267.409 112.415 266.36 112.673 265.296 112.673C264.232 112.673 263.183 112.415 262.241 111.92L221.257 88.2633C220.356 87.6987 219.608 86.9213 219.078 85.9994C218.545 85.0777 218.245 84.0403 218.202 82.9766L218.202 72.5524L218.202 72.4745C218.203 66.4319 220.469 60.6091 224.551 56.1543C228.634 51.6994 234.238 48.9359 240.257 48.4087C238.7 48.5837 237.262 49.3246 236.215 50.4906C235.169 51.6567 234.587 53.1666 234.581 54.7333L234.581 65.2289C234.516 67.35 234.581 69.1663 234.581 70.2172L254.366 70.2172L254.366 83.502C254.366 85.2224 255.049 86.8723 256.266 88.0888C257.482 89.3053 259.132 89.9888 260.852 89.9888L276.343 89.9888Z" fill="url(#paint0_linear)"/>
<path fill-rule="evenodd" clip-rule="evenodd" d="M254.266 28.501V48.2791H254.078C250.127 48.2791 246.177 48.2077 242.233 48.2077C236.499 48.2111 230.954 50.2522 226.586 53.9666C222.218 57.6809 219.312 62.8267 218.388 68.4853L218.329 68.855C218.329 68.9718 218.297 69.082 218.284 69.1923C218.271 69.3026 218.284 69.374 218.284 69.4583C218.284 69.5426 218.284 69.6399 218.251 69.7307C218.219 69.8215 218.251 69.9059 218.251 69.9967C218.251 70.0875 218.251 70.2172 218.219 70.3275C218.187 70.4378 218.219 70.587 218.219 70.7167V70.9957C218.219 71.0865 218.219 71.1773 218.219 71.2681C218.219 71.3589 218.219 71.4562 218.219 71.547C218.219 71.6378 218.219 71.7222 218.219 71.813V35.5196C218.254 34.4542 218.551 33.4139 219.084 32.4907C219.617 31.5674 220.369 30.7898 221.274 30.2264L262.257 6.56929C263.2 6.07492 264.248 5.81665 265.313 5.81665C266.377 5.81665 267.426 6.07492 268.368 6.56929L309.351 30.2264C310.252 30.791 311.001 31.5685 311.531 32.4903C312.063 33.412 312.364 34.4494 312.407 35.5131V45.9374V46.0152C312.405 52.0578 310.14 57.8806 306.057 62.3355C301.975 66.7903 296.371 69.5538 290.352 70.081C291.909 69.906 293.347 69.1651 294.393 67.9991C295.44 66.8331 296.021 65.3232 296.027 63.7564V53.2609C296.092 51.1397 296.027 49.3234 296.027 48.2726H276.243V34.9877C276.243 33.2673 275.56 31.6174 274.343 30.4009C273.127 29.1844 271.477 28.501 269.756 28.501H254.266Z" fill="url(#paint1_linear)"/>
</g>
<defs>
<filter id="filter0_d" x="0.171875" y="0.81665" width="332.235" height="136.856" filterUnits="userSpaceOnUse" color-interpolation-filters="sRGB">
<feFlood flood-opacity="0" result="BackgroundImageFix"/>
<feColorMatrix in="SourceAlpha" type="matrix" values="0 0 0 0 0 0 0 0 0 0 0 0 0 0 0 0 0 0 127 0"/>
<feOffset dx="5" dy="10"/>
<feGaussianBlur stdDeviation="7.5"/>
<feColorMatrix type="matrix" values="0 0 0 0 0.0980392 0 0 0 0 0.239216 0 0 0 0 0.419608 0 0 0 1 0"/>
<feBlend mode="normal" in2="BackgroundImageFix" result="effect1_dropShadow"/>
<feBlend mode="normal" in="SourceGraphic" in2="effect1_dropShadow" result="shape"/>
</filter>
<linearGradient id="paint0_linear" x1="312.513" y1="79.7008" x2="218.325" y2="79.7008" gradientUnits="userSpaceOnUse">
<stop stop-color="#5BB6E6"/>
<stop offset="0.26" stop-color="#98DAF8"/>
<stop offset="0.86" stop-color="#0372AF"/>
<stop offset="1" stop-color="#005593"/>
</linearGradient>
<linearGradient id="paint1_linear" x1="218.096" y1="38.789" x2="312.283" y2="38.789" gradientUnits="userSpaceOnUse">
<stop stop-color="#5BB6E6"/>
<stop offset="0.26" stop-color="#98DAF8"/>
<stop offset="0.86" stop-color="#0372AF"/>
<stop offset="1" stop-color="#005593"/>
</linearGradient>
</defs>
</svg>
