<svg width="70" height="70" viewBox="0 0 70 70" fill="none" xmlns="http://www.w3.org/2000/svg">
<path fill-rule="evenodd" clip-rule="evenodd" d="M35.0001 31.8889C30.8529 31.8889 28.7778 29.6841 28.7778 25.2778C28.7778 20.8715 30.8529 18.6667 35.0001 18.6667C39.1472 18.6667 41.2223 20.8715 41.2223 25.2778C41.2223 29.6841 39.1472 31.8889 35.0001 31.8889Z" fill="#B71F35"/>
<path d="M25.6667 41.2222C25.6667 41.2222 28.0001 38.1111 35.0001 38.1111C42.0001 38.1111 44.3334 41.2222 44.3334 41.2222" stroke="#B71F35" stroke-width="4" stroke-linecap="round" stroke-linejoin="round"/>
<path d="M29.7154 54.4444C14.89 53.4089 12.4443 47.325 12.4443 31.986C12.4443 14.9965 15.4378 9.33331 34.9999 9.33331C54.5588 9.33331 57.5555 14.9965 57.5555 31.986C57.5555 47.325 55.1066 53.4089 40.2811 54.4444" stroke="#B71F35" stroke-width="4" stroke-linecap="round" stroke-linejoin="round"/>
<path d="M29.5557 54.4445H29.592L34.9985 60.6667L40.4083 54.4445H40.4446" stroke="#B71F35" stroke-width="4" stroke-linecap="round" stroke-linejoin="round"/>
</svg>
