<svg width="120" height="122" viewBox="0 0 120 122" fill="none" xmlns="http://www.w3.org/2000/svg">
<path d="M102.388 50.3817C97.9159 50.3806 93.6106 52.08 90.3459 55.1351C87.0812 58.1902 85.1017 62.3722 84.809 66.8325C84.5163 71.2928 85.9324 75.6974 88.7699 79.1524C91.6074 82.6075 95.6538 84.8543 100.088 85.437V91.3721C100.087 94.7248 99.4259 98.0444 98.1414 101.142C96.857 104.239 94.9748 107.053 92.6022 109.423C90.2297 111.793 87.4133 113.673 84.3138 114.955C81.2143 116.237 77.8925 116.897 74.5379 116.896C71.1834 116.896 67.8618 116.234 64.7629 114.951C61.664 113.667 58.8484 111.786 56.477 109.415C51.6875 104.626 48.9977 98.1316 48.9992 91.3607L48.9072 73.3368H57.1728C59.6157 73.3344 61.9843 72.497 63.8854 70.9637C65.7864 69.4303 67.1055 67.2932 67.6237 64.9073C69.7056 64.7298 71.7 63.99 73.3936 62.7671C75.0872 61.5442 76.4164 59.8841 77.2388 57.9644L92.0142 23.6218C92.6999 22.0257 93.0167 20.2955 92.9412 18.5601C92.8656 16.8247 92.3995 15.1287 91.5776 13.5981C90.7557 12.0676 89.5992 10.7419 88.1939 9.71967C86.7887 8.69745 85.1709 8.00502 83.461 7.69385C82.978 5.51348 81.7655 3.5629 80.0237 2.16411C78.2819 0.765315 76.1149 0.00193947 73.8804 0H70.2997C67.6967 0 65.2004 1.03344 63.3598 2.87296C61.5192 4.71248 60.4852 7.20741 60.4852 9.8089C60.4852 12.4104 61.5192 14.9053 63.3598 16.7448C65.2004 18.5844 67.6967 19.6178 70.2997 19.6178H73.8804C76.0339 19.6157 78.127 18.9066 79.8379 17.5996C81.5488 16.2925 82.7827 14.46 83.3498 12.3837C84.2956 12.6594 85.172 13.1328 85.9208 13.7727C86.6696 14.4126 87.2738 15.2042 87.6932 16.0951C88.1127 16.9861 88.3378 17.956 88.3537 18.9405C88.3696 19.925 88.1759 20.9016 87.7855 21.8056L73.014 56.1483C72.5434 57.2454 71.7975 58.2027 70.8486 58.9276C69.8996 59.6524 68.7797 60.1205 67.5969 60.2864C67.0585 57.9251 65.7341 55.8163 63.8405 54.3052C61.9468 52.794 59.5961 51.97 57.1728 51.968H35.9261C33.4997 51.9708 31.1463 52.7973 29.2517 54.3122C27.357 55.8271 26.0335 57.9403 25.4982 60.3055C24.2875 60.1614 23.136 59.7014 22.1596 58.9716C21.1831 58.2419 20.416 57.2682 19.9354 56.1483L5.16386 21.8056C4.75946 20.8682 4.56669 19.8533 4.59926 18.8329C4.63183 17.8126 4.88894 16.812 5.35231 15.9023C5.81567 14.9925 6.47391 14.196 7.28021 13.5693C8.08651 12.9426 9.02107 12.5012 10.0174 12.2764C10.5663 14.3775 11.7963 16.2376 13.5151 17.5659C15.234 18.8941 17.3448 19.6157 19.5175 19.6178H23.0982C25.7012 19.6178 28.1976 18.5844 30.0381 16.7448C31.8787 14.9053 32.9127 12.4104 32.9127 9.8089C32.9127 7.20741 31.8787 4.71248 30.0381 2.87296C28.1976 1.03344 25.7012 0 23.0982 0H19.5175C17.2957 0.0016145 15.14 0.756153 13.4027 2.14037C11.6653 3.52458 10.449 5.45667 9.95224 7.62105C8.19202 7.86791 6.51247 8.51719 5.04419 9.51839C3.5759 10.5196 2.35844 11.8457 1.48645 13.3938C0.61446 14.9418 0.111442 16.6699 0.0165013 18.4438C-0.0784398 20.2178 0.237254 21.9897 0.939041 23.6218L15.7106 57.9644C16.5442 59.9077 17.8963 61.5846 19.6191 62.8118C21.3419 64.0389 23.369 64.7692 25.479 64.9226C26.0006 67.3048 27.3206 69.4376 29.2205 70.9678C31.1203 72.4979 33.4861 73.3337 35.9261 73.3368H44.3029L44.3987 91.3721C44.3987 99.3626 47.5747 107.026 53.228 112.676C58.8812 118.326 66.5487 121.5 74.5437 121.5C82.5386 121.5 90.2061 118.326 95.8594 112.676C101.513 107.026 104.689 99.3626 104.689 91.3721V85.437C109.122 84.853 113.167 82.6056 116.003 79.1508C118.839 75.696 120.255 71.2923 119.962 66.8329C119.67 62.3735 117.691 58.1923 114.427 55.1372C111.164 52.0822 106.86 50.3821 102.388 50.3817ZM73.8804 15.0199H70.2997C68.9168 15.0199 67.5907 14.4709 66.6129 13.4936C65.6351 12.5164 65.0857 11.1909 65.0857 9.8089C65.0857 8.42686 65.6351 7.10143 66.6129 6.12418C67.5907 5.14693 68.9168 4.59792 70.2997 4.59792H73.8804C75.2632 4.59792 76.5894 5.14693 77.5672 6.12418C78.545 7.10143 79.0943 8.42686 79.0943 9.8089C79.0943 11.1909 78.545 12.5164 77.5672 13.4936C76.5894 14.4709 75.2632 15.0199 73.8804 15.0199ZM19.5175 4.59792H23.0982C24.4811 4.59792 25.8073 5.14693 26.7851 6.12418C27.7629 7.10143 28.3122 8.42686 28.3122 9.8089C28.3122 11.1909 27.7629 12.5164 26.7851 13.4936C25.8073 14.4709 24.4811 15.0199 23.0982 15.0199H19.5175C18.1347 15.0199 16.8085 14.4709 15.8307 13.4936C14.8529 12.5164 14.3036 11.1909 14.3036 9.8089C14.3036 8.42686 14.8529 7.10143 15.8307 6.12418C16.8085 5.14693 18.1347 4.59792 19.5175 4.59792ZM35.9261 68.7389C34.3109 68.7389 32.7619 68.0976 31.6198 66.9562C30.4777 65.8148 29.8361 64.2666 29.8361 62.6524C29.8361 61.0382 30.4777 59.49 31.6198 58.3486C32.7619 57.2071 34.3109 56.5659 35.9261 56.5659H57.1728C58.788 56.5659 60.337 57.2071 61.4791 58.3486C62.6212 59.49 63.2628 61.0382 63.2628 62.6524C63.2628 64.2666 62.6212 65.8148 61.4791 66.9562C60.337 68.0976 58.788 68.7389 57.1728 68.7389H35.9261ZM102.388 80.9885C99.8149 80.9885 97.2992 80.2258 95.1594 78.7969C93.0196 77.3679 91.3518 75.3369 90.367 72.9606C89.3822 70.5844 89.1245 67.9696 89.6265 65.447C90.1286 62.9244 91.3679 60.6072 93.1876 58.7885C95.0073 56.9698 97.3258 55.7313 99.8499 55.2295C102.374 54.7277 104.99 54.9852 107.368 55.9695C109.745 56.9538 111.778 58.6206 113.207 60.7592C114.637 62.8978 115.4 65.412 115.4 67.9841C115.396 71.4318 114.024 74.7372 111.585 77.1751C109.145 79.6131 105.838 80.9845 102.388 80.9885Z" fill="#193D6B"/>
</svg>
