<svg width="80" height="80" viewBox="0 0 80 80" fill="none" xmlns="http://www.w3.org/2000/svg">
<path fill-rule="evenodd" clip-rule="evenodd" d="M43.75 69.9997H36.25C21.7533 69.9997 10 58.2497 10 43.7497V36.2497C10 21.7497 21.7533 9.99969 36.25 9.99969H43.75C58.2467 9.99969 70 21.7497 70 36.2497V43.7497C70 58.2497 58.2467 69.9997 43.75 69.9997Z" stroke="white" stroke-width="5" stroke-linecap="round" stroke-linejoin="round"/>
<path d="M40 26.6671V40.0004" stroke="white" stroke-width="5" stroke-linecap="round" stroke-linejoin="round"/>
<path fill-rule="evenodd" clip-rule="evenodd" d="M43.3337 53.3337C43.3337 55.177 41.8403 56.667 40.0003 56.667C38.1603 56.667 36.667 55.177 36.667 53.3337C36.667 51.4904 38.1603 50.0004 40.0003 50.0004C41.8403 50.0004 43.3337 51.4904 43.3337 53.3337Z" fill="white"/>
</svg>
