<svg width="120" height="122" viewBox="0 0 120 122" fill="none" xmlns="http://www.w3.org/2000/svg">
<path d="M27.4306 54.6851H37.8805V65.1372C37.8805 65.8226 38.1528 66.4799 38.6374 66.9645C39.122 67.4491 39.7793 67.7214 40.4647 67.7214H54.0746C54.76 67.7214 55.4173 67.4491 55.9019 66.9645C56.3865 66.4799 56.6588 65.8226 56.6588 65.1372V54.6851H67.1087C67.7941 54.6851 68.4514 54.4129 68.936 53.9282C69.4206 53.4436 69.6929 52.7863 69.6929 52.101V38.491C69.6929 37.8057 69.4206 37.1484 68.936 36.6637C68.4514 36.1791 67.7941 35.9069 67.1087 35.9069H56.6605V25.4548C56.6605 24.7694 56.3883 24.1121 55.9036 23.6275C55.419 23.1429 54.7617 22.8706 54.0764 22.8706H40.4664C39.7811 22.8706 39.1238 23.1429 38.6391 23.6275C38.1545 24.1121 37.8823 24.7694 37.8823 25.4548V35.9051H27.4306C26.7452 35.9051 26.0879 36.1774 25.6033 36.662C25.1187 37.1466 24.8464 37.8039 24.8464 38.4893V52.0992C24.8462 52.4387 24.9129 52.775 25.0427 53.0887C25.1724 53.4024 25.3627 53.6875 25.6027 53.9276C25.8427 54.1678 26.1276 54.3583 26.4413 54.4882C26.7549 54.6182 27.0911 54.6851 27.4306 54.6851ZM30.0148 41.0752H40.4647C41.1501 41.0752 41.8074 40.8029 42.292 40.3183C42.7766 39.8337 43.0489 39.1764 43.0489 38.491V28.0389H51.4905V38.4893C51.4905 39.1747 51.7627 39.832 52.2474 40.3166C52.732 40.8012 53.3893 41.0735 54.0746 41.0735H64.5246V49.5151H54.0764C53.391 49.5151 52.7337 49.7873 52.2491 50.272C51.7645 50.7566 51.4922 51.4139 51.4922 52.0992V62.553H43.0506V52.101C43.0506 51.4156 42.7783 50.7583 42.2937 50.2737C41.8091 49.789 41.1518 49.5168 40.4664 49.5168H30.0148V41.0752Z" fill="white"/>
<path d="M118.708 64.7176L94.5417 50.7631V26.8251C94.5418 26.4858 94.4749 26.1498 94.3448 25.8364C94.2148 25.523 94.024 25.2384 93.7836 24.999L69.5571 0.772439C69.2583 0.469939 68.8879 0.247734 68.4804 0.126397C67.9071 -0.0592317 72.1051 0.0144161 2.58416 0.0144161C1.8988 0.0144161 1.24151 0.286674 0.756882 0.771298C0.272257 1.25592 0 1.91322 0 2.59858V119.248C0 119.933 0.272257 120.59 0.756882 121.075C1.24151 121.56 1.8988 121.832 2.58416 121.832C2.76549 121.832 92.0182 121.839 92.1987 121.819C95.1046 121.577 120 105.622 120 75.149V66.9572C120.001 66.5032 119.882 66.0571 119.655 65.6638C119.428 65.2706 119.101 64.9442 118.708 64.7176ZM70.3151 8.83934L85.7167 24.241H70.3151V8.83934ZM5.16833 116.664V5.1849H65.1468V26.8273C65.1468 27.5126 65.4191 28.1699 65.9037 28.6546C66.3883 29.1392 67.0456 29.4114 67.731 29.4114H89.3733V50.7653L65.2071 64.7197C64.8137 64.9463 64.487 65.2727 64.2602 65.666C64.0333 66.0592 63.9142 66.5054 63.915 66.9594V74.1821H17.4259C16.7405 74.1821 16.0832 74.4544 15.5986 74.939C15.114 75.4236 14.8417 76.0809 14.8417 76.7663C14.8417 77.4516 15.114 78.1089 15.5986 78.5935C16.0832 79.0782 16.7405 79.3504 17.4259 79.3504H64.083C64.3312 82.4861 64.8573 85.5936 65.655 88.6362H17.4259C16.7405 88.6362 16.0832 88.9085 15.5986 89.3931C15.114 89.8777 14.8417 90.535 14.8417 91.2204C14.8417 91.9057 15.114 92.563 15.5986 93.0476C16.0832 93.5323 16.7405 93.8045 17.4259 93.8045H67.2916C68.4969 97.0367 70.0113 100.145 71.8139 103.086H17.4259C16.7405 103.086 16.0832 103.358 15.5986 103.843C15.114 104.327 14.8417 104.985 14.8417 105.67C14.8417 106.356 15.114 107.013 15.5986 107.497C16.0832 107.982 16.7405 108.254 17.4259 108.254H75.4102C77.8475 111.355 80.6209 114.176 83.6796 116.666L5.16833 116.664ZM114.832 75.149C114.819 83.376 112.712 91.4643 108.71 98.6525C104.709 105.841 98.9434 111.892 91.9575 116.237C85.8653 112.463 82.0347 108.442 78.1538 103.303C68.0635 89.2353 69.0833 76.1267 69.0833 68.4474C92.3804 54.9964 88.5107 57.2304 91.9575 55.2423C95.3548 57.2016 91.37 54.9012 114.832 68.4474V75.149Z" fill="white"/>
<path d="M81.7668 79.8059C81.3071 79.302 80.6669 79.0003 79.9857 78.9665C79.3045 78.9327 78.6375 79.1696 78.1303 79.6255C77.623 80.0814 77.3165 80.7193 77.2776 81.4002C77.2388 82.0812 77.4707 82.7499 77.9228 83.2605L90.0352 96.7378C90.2826 97.013 90.5863 97.2318 90.9256 97.3795C91.2649 97.5272 91.632 97.6003 92.002 97.5939C92.372 97.5874 92.7363 97.5016 93.0703 97.3422C93.4042 97.1827 93.7001 96.9534 93.9377 96.6697L109.227 78.4242C109.668 77.8988 109.881 77.22 109.821 76.5372C109.76 75.8544 109.431 75.2235 108.906 74.7834C108.38 74.3432 107.702 74.1298 107.019 74.1901C106.336 74.2504 105.705 74.5794 105.265 75.1049L91.8872 91.0686L81.7668 79.8059Z" fill="white"/>
</svg>
