<svg width="120" height="105" viewBox="0 0 120 105" fill="none" xmlns="http://www.w3.org/2000/svg">
<path d="M46.5076 67.7554H13.5207C12.9 67.7554 12.3047 68.002 11.8657 68.4409C11.4268 68.8798 11.1802 69.4752 11.1802 70.0959C11.1802 70.7167 11.4268 71.312 11.8657 71.751C12.3047 72.1899 12.9 72.4365 13.5207 72.4365H46.5076C47.1283 72.4365 47.7236 72.1899 48.1626 71.751C48.6015 71.312 48.8481 70.7167 48.8481 70.0959C48.8481 69.4752 48.6015 68.8798 48.1626 68.4409C47.7236 68.002 47.1283 67.7554 46.5076 67.7554Z" fill="white"/>
<path d="M46.5076 77.8062H13.5207C12.9 77.8062 12.3047 78.0527 11.8657 78.4917C11.4268 78.9306 11.1802 79.526 11.1802 80.1467C11.1802 80.7675 11.4268 81.3628 11.8657 81.8018C12.3047 82.2407 12.9 82.4873 13.5207 82.4873H46.5076C47.1283 82.4873 47.7236 82.2407 48.1626 81.8018C48.6015 81.3628 48.8481 80.7675 48.8481 80.1467C48.8481 79.526 48.6015 78.9306 48.1626 78.4917C47.7236 78.0527 47.1283 77.8062 46.5076 77.8062Z" fill="white"/>
<path d="M46.5076 87.8569H13.5207C12.9 87.8569 12.3047 88.1035 11.8657 88.5424C11.4268 88.9814 11.1802 89.5767 11.1802 90.1975C11.1802 90.8182 11.4268 91.4136 11.8657 91.8525C12.3047 92.2914 12.9 92.538 13.5207 92.538H46.5076C47.1283 92.538 47.7236 92.2914 48.1626 91.8525C48.6015 91.4136 48.8481 90.8182 48.8481 90.1975C48.8481 89.5767 48.6015 88.9814 48.1626 88.5424C47.7236 88.1035 47.1283 87.8569 46.5076 87.8569Z" fill="white"/>
<path d="M67.1905 67.7554H55.3745C54.7537 67.7554 54.1584 68.002 53.7195 68.4409C53.2805 68.8798 53.0339 69.4752 53.0339 70.0959V90.1975C53.0339 90.8183 53.2805 91.4136 53.7195 91.8526C54.1584 92.2915 54.7537 92.5381 55.3745 92.5381H67.1905C67.8112 92.5381 68.4066 92.2915 68.8455 91.8526C69.2845 91.4136 69.531 90.8183 69.531 90.1975V70.0959C69.531 69.4752 69.2845 68.8798 68.8455 68.4409C68.4066 68.002 67.8112 67.7554 67.1905 67.7554ZM64.8499 87.857H57.7151V72.4365H64.8499V87.857Z" fill="white"/>
<path d="M92.1131 17.5231C88.1821 17.5188 84.2951 18.3513 80.7106 19.9651V15.4361C80.7085 13.3458 79.8772 11.3418 78.3991 9.86375C76.9211 8.38572 74.9171 7.55441 72.8268 7.55224H58.6196V4.82937C58.6175 3.54918 58.108 2.32201 57.2028 1.41677C56.2976 0.511533 55.0704 0.00206317 53.7902 0H26.9244C25.6442 0.00206317 24.417 0.511533 23.5117 1.41677C22.6065 2.32201 22.097 3.54918 22.095 4.82937V7.55224H7.88382C5.79379 7.55513 3.79018 8.38667 2.31231 9.86455C0.834431 11.3424 0.00288964 13.346 0 15.4361V96.1662C0.00206356 98.2568 0.833215 100.261 2.31116 101.74C3.7891 103.219 5.79317 104.051 7.88382 104.054H72.8268C74.9176 104.051 76.9221 103.219 78.4002 101.741C79.8782 100.262 80.7092 98.257 80.7106 96.1662V70.8568C82.0086 71.4438 83.3508 71.9277 84.7247 72.3041V96.6616C84.7247 98.6211 85.5031 100.5 86.8887 101.886C88.2743 103.272 90.1536 104.05 92.1131 104.05C94.0726 104.05 95.9519 103.272 97.3375 101.886C98.7231 100.5 99.5015 98.6211 99.5015 96.6616V72.3041C106.011 70.5152 111.65 66.4261 115.374 60.7953C119.097 55.1646 120.652 48.3744 119.75 41.6844C118.847 34.9945 115.549 28.8588 110.467 24.4157C105.385 19.9726 98.8636 17.5236 92.1131 17.5231ZM26.7761 9.9837V4.82937C26.7761 4.79006 26.7917 4.75236 26.8195 4.72456C26.8473 4.69676 26.885 4.68114 26.9244 4.68114H53.7902C53.8295 4.68114 53.8672 4.69676 53.895 4.72456C53.9228 4.75236 53.9384 4.79006 53.9384 4.82937V14.9562C53.9384 14.9956 53.9228 15.0333 53.895 15.0611C53.8672 15.0889 53.8295 15.1045 53.7902 15.1045H26.9244C26.885 15.1045 26.8473 15.0889 26.8195 15.0611C26.7917 15.0333 26.7761 14.9956 26.7761 14.9562V9.9837ZM76.0295 96.1662C76.0291 97.0158 75.6916 97.8306 75.0912 98.4317C74.4908 99.0329 73.6764 99.3713 72.8268 99.3728H7.88382C7.03437 99.3707 6.22037 99.0321 5.62008 98.4311C5.0198 97.83 4.68217 97.0156 4.68114 96.1662V15.4361C4.68238 14.587 5.0202 13.7731 5.62055 13.1728C6.2209 12.5724 7.03479 12.2346 7.88382 12.2334H22.095V14.9562C22.097 16.2364 22.6065 17.4636 23.5117 18.3688C24.417 19.2741 25.6442 19.7836 26.9244 19.7856H53.7902C55.0704 19.7836 56.2976 19.2741 57.2028 18.3688C58.108 17.4636 58.6175 16.2364 58.6196 14.9562V12.2334H72.8268C73.6761 12.2339 74.4904 12.5715 75.0909 13.172C75.6914 13.7725 76.029 14.5868 76.0295 15.4361V22.6411C72.5543 25.0937 69.6863 28.3088 67.645 32.0404C65.6038 35.7721 64.4433 39.9213 64.2525 44.1704H57.8604L54.1128 35.2154C53.9377 34.7968 53.6447 34.4381 53.2694 34.183C52.8941 33.9279 52.4528 33.7874 51.9991 33.7785C51.5455 33.7697 51.099 33.8929 50.7141 34.1332C50.3292 34.3735 50.0224 34.7205 49.8311 35.1319L42.1072 51.7344L33.7331 30.3552C33.5684 29.9348 33.2856 29.571 32.9188 29.3077C32.5521 29.0443 32.117 28.8927 31.666 28.8711C31.215 28.8494 30.7673 28.9587 30.377 29.1857C29.9867 29.4127 29.6704 29.7477 29.4662 30.1504L22.3591 44.1704H14.0668C13.4461 44.1704 12.8507 44.417 12.4118 44.856C11.9728 45.2949 11.7263 45.8903 11.7263 46.511C11.7263 47.1318 11.9728 47.7271 12.4118 48.166C12.8507 48.605 13.4461 48.8516 14.0668 48.8516H23.7997C24.2321 48.8515 24.6561 48.7317 25.0245 48.5054C25.393 48.279 25.6916 47.955 25.8871 47.5693L31.2821 36.9264L39.7472 58.5345C39.9143 58.9611 40.203 59.3293 40.5775 59.5933C40.952 59.8574 41.3957 60.0058 41.8537 60.02C41.8779 60.02 41.9024 60.02 41.9266 60.02C42.3725 60.02 42.8091 59.8926 43.1851 59.6529C43.561 59.4132 43.8606 59.071 44.0487 58.6668L51.8428 41.9102L54.1463 47.4133C54.3245 47.839 54.6245 48.2026 55.0087 48.4583C55.3928 48.714 55.844 48.8504 56.3055 48.8504H64.4398C64.9208 52.7012 66.2 56.4092 68.1956 59.7374C70.1912 63.0657 72.8594 65.9409 76.0295 68.1792V96.1662ZM94.8204 96.6616C94.8204 97.3796 94.5351 98.0682 94.0274 98.5759C93.5197 99.0836 92.8311 99.3689 92.1131 99.3689C91.3951 99.3689 90.7065 99.0836 90.1988 98.5759C89.6911 98.0682 89.4058 97.3796 89.4058 96.6616V94.8722H94.8204V96.6616ZM94.8204 90.1911H89.4058V73.1662C91.2063 73.3433 93.0199 73.3433 94.8204 73.1662V90.1911ZM76.0295 62.1187C61.0081 47.6743 71.3737 22.2042 92.1131 22.2042C98.2657 22.2115 104.164 24.6589 108.515 29.0094C112.865 33.3599 115.313 39.2584 115.32 45.4109C115.32 65.8028 90.7068 76.3049 76.0295 62.1187Z" fill="white"/>
<path d="M92.1135 26.495C71.9241 26.495 65.5387 54.6388 84.7251 62.8245C97.1812 68.1298 111.029 58.9107 111.029 45.4107C111.024 40.3956 109.029 35.5874 105.483 32.0412C101.937 28.495 97.1286 26.5003 92.1135 26.495ZM80.711 53.9225C73.7373 44.609 80.3907 31.1761 92.1135 31.1761C95.8874 31.1805 99.5055 32.6816 102.174 35.3501C104.843 38.0187 106.344 41.6368 106.348 45.4107C106.348 59.0913 88.8624 64.8105 80.711 53.9225Z" fill="white"/>
</svg>
