<svg width="830" height="839" viewBox="0 0 830 839" fill="none" xmlns="http://www.w3.org/2000/svg">
<path d="M509.524 383.096V294.904L433.15 250.809L356.776 294.904V383.096L433.15 427.191L509.524 383.096Z" stroke="url(#paint0_linear)" stroke-width="2" stroke-miterlimit="10"/>
<path d="M518.884 388.499V289.502L433.15 240.003L347.416 289.502V388.499L433.15 437.998L518.884 388.499Z" stroke="url(#paint1_linear)" stroke-width="1.9495" stroke-miterlimit="10"/>
<path d="M528.245 393.902V284.098L433.15 229.185L338.055 284.098V393.902L433.15 448.804L528.245 393.902Z" stroke="url(#paint2_linear)" stroke-width="1.8989" stroke-miterlimit="10"/>
<path d="M537.616 399.305V278.684L433.15 218.378L328.684 278.684V399.305L433.15 459.621L537.616 399.305Z" stroke="url(#paint3_linear)" stroke-width="1.8484" stroke-miterlimit="10"/>
<path d="M546.977 404.719V273.28L433.15 207.561L319.323 273.28V404.719L433.15 470.428L546.977 404.719Z" stroke="url(#paint4_linear)" stroke-width="1.7979" stroke-miterlimit="10"/>
<path d="M556.337 410.123V267.877L433.15 196.755L309.963 267.877V410.123L433.15 481.245L556.337 410.123Z" stroke="url(#paint5_linear)" stroke-width="1.7474" stroke-miterlimit="10"/>
<path d="M565.698 415.526V262.474L433.15 185.948L300.602 262.474V415.526L433.15 492.052L565.698 415.526Z" stroke="url(#paint6_linear)" stroke-width="1.6968" stroke-miterlimit="10"/>
<path d="M575.058 420.929V257.07L433.15 175.13L291.242 257.07V420.929L433.15 502.858L575.058 420.929Z" stroke="url(#paint7_linear)" stroke-width="1.6463" stroke-miterlimit="10"/>
<path d="M584.418 426.332V251.657L433.15 164.325L281.881 251.657V426.332L433.15 513.676L584.418 426.332Z" stroke="url(#paint8_linear)" stroke-width="1.5958" stroke-miterlimit="10"/>
<path d="M593.79 431.746V246.253L433.15 153.507L272.51 246.253V431.746L433.15 524.482L593.79 431.746Z" stroke="url(#paint9_linear)" stroke-width="1.5453" stroke-miterlimit="10"/>
<path d="M603.151 437.15V240.851L433.15 142.701L263.149 240.851V437.15L433.15 535.3L603.151 437.15Z" stroke="url(#paint10_linear)" stroke-width="1.4947" stroke-miterlimit="10"/>
<path d="M612.511 442.553V235.447L433.15 131.894L253.789 235.447V442.553L433.15 546.106L612.511 442.553Z" stroke="url(#paint11_linear)" stroke-width="1.4442" stroke-miterlimit="10"/>
<path d="M621.872 447.956V230.043L433.15 121.076L244.428 230.043V447.956L433.15 556.923L621.872 447.956Z" stroke="url(#paint12_linear)" stroke-width="1.3937" stroke-miterlimit="10"/>
<path d="M631.232 453.359V224.63L433.15 110.27L235.068 224.63V453.359L433.15 567.73L631.232 453.359Z" stroke="url(#paint13_linear)" stroke-width="1.3432" stroke-miterlimit="10"/>
<path d="M640.604 458.773V219.226L433.15 99.4528L225.696 219.226V458.773L433.15 578.536L640.604 458.773Z" stroke="url(#paint14_linear)" stroke-width="1.2926" stroke-miterlimit="10"/>
<path d="M649.964 464.177V213.823L433.15 88.6466L216.336 213.823V464.177L433.15 589.353L649.964 464.177Z" stroke="url(#paint15_linear)" stroke-width="1.2421" stroke-miterlimit="10"/>
<path d="M659.325 469.58V208.42L433.15 77.84L206.975 208.42V469.58L433.15 600.16L659.325 469.58Z" stroke="url(#paint16_linear)" stroke-width="1.1916" stroke-miterlimit="10"/>
<path d="M668.685 474.983V203.006L433.15 67.0226L197.615 203.006V474.983L433.15 610.977L668.685 474.983Z" stroke="url(#paint17_linear)" stroke-width="1.1411" stroke-miterlimit="10"/>
<path d="M678.046 480.386V197.603L433.15 56.2164L188.254 197.603V480.386L433.15 621.784L678.046 480.386Z" stroke="url(#paint18_linear)" stroke-width="1.0905" stroke-miterlimit="10"/>
<path d="M687.406 485.8V192.199L433.15 45.3989L178.894 192.199V485.8L433.15 632.59L687.406 485.8Z" stroke="url(#paint19_linear)" stroke-width="1.04" stroke-miterlimit="10"/>
<path d="M696.778 491.204V186.797L433.15 34.5931L169.522 186.797V491.204L433.15 643.408L696.778 491.204Z" stroke="url(#paint20_linear)" stroke-width="0.9895" stroke-miterlimit="10"/>
<path d="M706.138 496.607V181.393L433.15 23.7753L160.162 181.393V496.607L433.15 654.214L706.138 496.607Z" stroke="url(#paint21_linear)" stroke-width="0.9389" stroke-miterlimit="10"/>
<path d="M715.499 502.011V175.979L433.15 12.9691L150.801 175.979V502.011L433.15 665.032L715.499 502.011Z" stroke="url(#paint22_linear)" stroke-width="0.8884" stroke-miterlimit="10"/>
<path d="M724.859 507.413V170.576L433.15 2.16211L141.44 170.576V507.413L433.15 675.838L724.859 507.413Z" stroke="url(#paint23_linear)" stroke-width="0.8379" stroke-miterlimit="10"/>
<path d="M734.22 512.828V165.173L433.15 -8.65497L132.08 165.173V512.828L433.15 686.644L734.22 512.828Z" stroke="url(#paint24_linear)" stroke-width="0.7874" stroke-miterlimit="10"/>
<path d="M743.591 518.23V159.769L433.15 -19.462L122.709 159.769V518.23L433.15 697.461L743.591 518.23Z" stroke="url(#paint25_linear)" stroke-width="0.7368" stroke-miterlimit="10"/>
<path d="M752.952 523.634V154.365L433.15 -30.2794L113.348 154.365V523.634L433.15 708.268L752.952 523.634Z" stroke="url(#paint26_linear)" stroke-width="0.6863" stroke-miterlimit="10"/>
<path d="M762.312 529.037V148.952L433.15 -41.0856L103.988 148.952V529.037L433.15 719.085L762.312 529.037Z" stroke="url(#paint27_linear)" stroke-width="0.6358" stroke-miterlimit="10"/>
<path d="M771.673 534.44V143.549L433.15 -51.8918L94.6274 143.549V534.44L433.15 729.892L771.673 534.44Z" stroke="url(#paint28_linear)" stroke-width="0.5853" stroke-miterlimit="10"/>
<path d="M781.033 539.854V138.145L433.15 -62.7092L85.2666 138.145V539.854L433.15 740.698L781.033 539.854Z" stroke="url(#paint29_linear)" stroke-width="0.5347" stroke-miterlimit="10"/>
<path d="M790.405 545.258V132.742L433.15 -73.5159L75.906 132.742V545.258L433.15 751.515L790.405 545.258Z" stroke="url(#paint30_linear)" stroke-width="0.4842" stroke-miterlimit="10"/>
<path d="M799.765 550.661V127.339L433.15 -84.3329L66.5347 127.339V550.661L433.15 762.322L799.765 550.661Z" stroke="url(#paint31_linear)" stroke-width="0.4337" stroke-miterlimit="10"/>
<path d="M809.126 556.065V121.925L433.15 -95.1392L57.1741 121.925V556.065L433.15 773.14L809.126 556.065Z" stroke="url(#paint32_linear)" stroke-width="0.3832" stroke-miterlimit="10"/>
<path d="M818.486 561.467V116.521L433.15 -105.946L47.8137 116.521V561.467L433.15 783.946L818.486 561.467Z" stroke="url(#paint33_linear)" stroke-width="0.3326" stroke-miterlimit="10"/>
<path d="M827.847 566.882V111.118L433.15 -116.763L38.4534 111.118V566.882L433.15 794.763L827.847 566.882Z" stroke="url(#paint34_linear)" stroke-width="0.2821" stroke-miterlimit="10"/>
<path d="M837.207 572.285V105.715L433.15 -127.57L29.0925 105.715V572.285L433.15 805.57L837.207 572.285Z" stroke="url(#paint35_linear)" stroke-width="0.2316" stroke-miterlimit="10"/>
<path d="M846.579 577.688V100.312L433.15 -138.387L19.7209 100.312V577.688L433.15 816.376L846.579 577.688Z" stroke="url(#paint36_linear)" stroke-width="0.1811" stroke-miterlimit="10"/>
<path d="M855.939 583.092V94.898L433.15 -149.193L10.3604 94.898V583.092L433.15 827.194L855.939 583.092Z" stroke="url(#paint37_linear)" stroke-width="0.1305" stroke-miterlimit="10"/>
<path d="M865.3 588.505V89.4946L433.15 -160L1 89.4946V588.505L433.15 838L865.3 588.505Z" stroke="url(#paint38_linear)" stroke-width="0.08" stroke-miterlimit="10"/>
<g filter="url(#filter0_d)">
<path fill-rule="evenodd" clip-rule="evenodd" d="M258.966 371.071C260.133 371.071 261.293 371.221 262.461 371.213C268.266 371.204 273.943 369.512 278.801 366.341C288.359 360.06 292.884 349.264 292.884 338.087C292.884 327.125 288.55 316.515 279.286 310.182C274.201 306.742 268.189 304.927 262.046 304.977C261.383 304.977 260.719 304.977 260.06 305.009C259.556 305.015 259.052 305.048 258.551 305.107H258.494C256.569 305.297 253.705 305.691 252.39 307.295C251.634 308.225 251.345 309.528 251.194 310.685C250.976 312.786 250.895 314.899 250.95 317.011V359.151C250.895 361.273 250.977 363.397 251.194 365.509C251.353 366.674 251.642 368.002 252.415 368.931C253.811 370.612 256.939 370.921 258.966 371.047V371.071ZM234.26 373.199L235.505 373.061H235.541C236.62 373.009 237.662 372.651 238.544 372.029C239.647 371.217 240.046 369.999 240.046 368.672V307.413C240.08 306.779 239.961 306.147 239.698 305.57C239.435 304.992 239.037 304.487 238.536 304.096C237.673 303.468 236.648 303.098 235.582 303.028H234.361C232.893 303.028 231.822 302.126 231.822 300.632C231.82 300.214 231.944 299.805 232.181 299.459C232.884 298.448 234.215 298.395 235.33 298.529C237.291 298.61 239.264 298.651 241.23 298.692C243.573 298.744 245.937 298.809 248.281 298.809C249.095 298.809 249.909 298.781 250.722 298.765L255.263 298.675L262.323 298.525H262.363C275.034 298.602 287.509 303.442 295.781 313.243C301.717 320.279 304.663 328.952 304.663 338.119C304.663 347.287 301.721 355.939 295.781 362.967C287.541 372.711 275.119 377.559 262.514 377.717H262.453L250.698 377.352C249.884 377.352 249.07 377.291 248.293 377.291C247.418 377.291 246.535 377.328 245.661 377.352C244.19 377.393 242.723 377.44 241.258 377.494C239.268 377.559 237.275 377.628 235.285 377.717H235.224C234.219 377.717 233.092 377.717 232.376 376.905C232.025 376.506 231.838 375.99 231.851 375.46C231.81 374.055 232.941 373.251 234.26 373.215V373.199Z" fill="white"/>
<path fill-rule="evenodd" clip-rule="evenodd" d="M334.004 302.744L332.759 302.882H332.722C331.643 302.934 330.602 303.292 329.719 303.913C328.616 304.745 328.218 305.943 328.218 307.295V368.806C328.183 369.442 328.302 370.078 328.566 370.659C328.829 371.24 329.229 371.749 329.731 372.143C330.593 372.772 331.616 373.144 332.681 373.215H333.902C335.371 373.215 336.441 374.116 336.441 375.606C336.444 376.026 336.319 376.437 336.083 376.784C335.379 377.795 334.048 377.843 332.929 377.713C330.972 377.612 328.999 377.563 327.042 377.519C325.085 377.474 323.185 377.433 321.26 377.433C318.412 377.433 315.446 377.506 312.589 377.709C311.478 377.843 310.148 377.799 309.424 376.784C309.184 376.438 309.057 376.027 309.062 375.606C309.062 374.116 310.136 373.215 311.605 373.215H312.793C315.311 372.878 317.301 371.591 317.301 368.806V307.295C317.336 306.658 317.217 306.022 316.953 305.441C316.69 304.86 316.29 304.351 315.787 303.958C314.924 303.328 313.9 302.956 312.833 302.886H311.613C310.14 302.886 309.07 301.984 309.07 300.49C309.066 300.071 309.193 299.661 309.432 299.317C310.128 298.314 311.466 298.257 312.549 298.383C314.465 298.383 316.438 298.533 318.355 298.647C319.335 298.704 320.32 298.761 321.301 298.809C323.205 298.809 325.129 298.724 327.026 298.639C328.922 298.554 330.972 298.452 332.913 298.233H333.06C334.065 298.233 335.192 298.233 335.908 299.045C336.257 299.445 336.444 299.96 336.433 300.49C336.453 301.903 335.326 302.707 334.004 302.744Z" fill="white"/>
<path fill-rule="evenodd" clip-rule="evenodd" d="M174.387 377.713C173.276 377.843 171.945 377.794 171.237 376.784C170.999 376.437 170.874 376.026 170.879 375.606C170.879 374.116 171.949 373.215 173.418 373.215H174.606C177.125 372.878 179.115 371.591 179.115 368.805V307.177C179.115 304.384 177.141 303.08 174.606 302.743H173.418C171.949 302.743 170.879 301.842 170.879 300.352C170.874 299.932 170.999 299.521 171.237 299.175C171.941 298.164 173.272 298.111 174.387 298.245C176.356 298.33 178.329 298.399 180.303 298.464L184.705 298.606C185.576 298.631 186.463 298.667 187.338 298.667C188.697 298.667 190.072 298.623 191.431 298.598L208.614 298.31C209.944 298.286 211.291 298.241 212.618 298.241C215.442 298.303 218.269 298.219 221.085 297.989C222.513 297.77 223.717 298.395 223.807 299.91C223.891 300.399 223.95 300.892 223.982 301.387C224.088 302.451 224.214 303.507 224.364 304.566V304.615C224.482 305.752 224.657 306.889 224.832 308.013C224.991 309.024 225.158 310.044 225.325 311.038C225.438 311.741 225.565 312.459 225.642 313.162C225.764 314.294 225.813 315.797 224.596 316.381C224.411 316.472 224.211 316.529 224.006 316.548C223.643 316.617 223.268 316.576 222.928 316.43C221.927 315.992 221.707 314.883 221.463 313.937V313.836C221.142 311.984 219.429 309.654 218.123 308.355C216.198 306.426 213.688 304.956 210.896 304.891H197.449C191.199 305.139 190.284 307.189 190.019 313.064V334.116C192.759 334.116 195.496 334.1 198.23 334.067C200.191 334.067 202.156 334.027 204.118 333.982C204.842 333.982 205.566 333.949 206.29 333.917C206.697 333.917 207.104 333.893 207.474 333.844C208.475 333.722 210.168 333.592 211.059 333.109C211.236 333.013 211.401 332.897 211.551 332.764C212.365 332.09 212.772 331.018 213.993 331.018C215.213 331.018 215.966 332.126 215.966 333.271C215.91 334 215.791 334.723 215.612 335.431C215.376 336.674 215.209 337.93 215.112 339.191C215.038 340.109 214.972 341.026 214.912 341.944C214.855 342.756 214.802 343.568 214.754 344.38C214.725 344.867 214.689 345.379 214.689 345.866C214.689 346.166 214.689 346.467 214.66 346.767C214.562 347.985 214.005 349.248 212.573 349.248C211.141 349.248 210.461 348.16 210.461 346.857C210.51 345.857 210.391 344.856 210.107 343.897V343.824C209.975 343.218 209.655 342.669 209.192 342.256C208.345 341.546 206.978 341.278 205.916 341.164H205.855C204.789 341.037 203.718 340.966 202.645 340.953C200.948 340.888 199.247 340.856 197.551 340.827C195.031 340.787 192.513 340.762 189.999 340.754V362.017C190.039 364.023 190.092 367.324 191.439 368.952C192.786 370.58 195.98 370.982 198.018 371.116H213.114C215.335 370.992 217.435 370.069 219.026 368.517C219.716 367.853 220.345 367.129 220.906 366.353C221.63 365.375 222.855 363.539 223.176 362.37L223.213 362.236L223.274 362.11C223.778 361.108 224.421 360.202 225.666 360.202H225.894L226.11 360.275C227.408 360.706 227.709 362.098 227.469 363.296C227.412 363.584 227.31 363.889 227.225 364.169C227.078 364.652 226.924 365.135 226.765 365.618C226.325 366.954 225.866 368.29 225.386 369.613C224.8 371.3 224.121 372.952 223.351 374.563V374.587C222.615 375.931 221.366 376.662 219.929 377.088C217.785 377.725 215.083 377.766 212.862 377.725C209.661 377.666 206.46 377.61 203.259 377.559L192.448 377.38C190.739 377.352 189.026 377.307 187.321 377.299C186.447 377.299 185.56 377.336 184.689 377.36C183.219 377.401 181.751 377.448 180.286 377.502C178.329 377.567 176.356 377.628 174.387 377.713Z" fill="white"/>
<path fill-rule="evenodd" clip-rule="evenodd" d="M140.815 373.215L142.194 373.077H142.214C142.508 373.064 142.791 372.965 143.028 372.793C144.477 371.692 144.192 367.616 144.017 366.049C143.895 364.948 143.712 363.856 143.492 362.772L133.088 323.925L116.406 365.635L116.324 365.756C116.15 366.038 115.997 366.332 115.868 366.637C118.867 372.293 122.44 378.156 126.814 382.829C130.171 386.414 134.17 389.447 139.02 390.681C143.87 391.916 148.606 391.156 153.172 389.463L153.245 389.435H153.322C153.639 389.356 153.97 389.348 154.291 389.411C154.645 389.465 154.979 389.612 155.259 389.836C155.538 390.061 155.753 390.355 155.882 390.689C156.248 391.769 155.519 392.659 154.628 393.15H154.571C146.177 397.295 136.913 397.953 128.242 394.169C115.364 388.554 106.966 374.75 101.668 362.399L85.6166 324.985C85.2721 324.173 84.9072 323.372 84.5221 322.581L76.6407 362.723V362.752C76.2224 364.472 75.9649 366.226 75.8717 367.994C75.8147 369.333 75.7903 372.642 77.4585 373.215H78.5408C80.0097 373.215 81.0798 374.116 81.0798 375.606C81.0833 376.026 80.9584 376.437 80.7218 376.784C80.0178 377.795 78.6873 377.843 77.5725 377.713C76.1687 377.653 74.765 377.608 73.3612 377.567C71.3268 377.506 69.2313 377.433 67.1766 377.433C65.8379 377.433 64.5033 377.401 63.1606 377.433C61.0367 377.433 58.9086 377.535 56.7928 377.726C55.6047 377.835 54.1725 377.795 53.4076 376.719C53.1312 376.312 52.9889 375.829 53.0007 375.338C52.9991 375.093 53.0476 374.85 53.1431 374.624C53.786 373.077 55.8 373.19 57.155 372.967H57.216C62.4689 372.33 65.4595 366.796 66.5255 362.143L78.02 312.07C74.3581 307.669 69.6911 305.098 64.1859 308.253L64.1127 308.294L64.0395 308.326C61.5168 309.406 59.8689 306.467 62.241 304.766C65.7443 302.26 69.7725 300.628 74.1465 300.986C85.2707 301.899 92.7411 315.046 96.7286 324.047L111.376 357.153L129.353 310.645C129.853 309.353 130.252 307.957 130.667 306.633C131.371 304.42 132.099 302.224 132.893 300.04C133.755 297.673 136.347 297.673 137.234 300.04V300.092L155.137 362.09C156.052 365.022 157.31 369.175 159.743 371.213C160.888 372.144 162.287 372.709 163.759 372.837H163.824C164.304 372.914 164.784 372.943 165.268 373.04C166.359 373.247 167.405 373.722 167.868 374.798L167.978 375.066V375.35C167.981 375.662 167.919 375.97 167.795 376.256C167.169 377.713 165.407 377.88 164.036 377.738C162.664 377.596 161.297 377.539 159.93 377.482C157.18 377.364 154.417 377.32 151.662 377.32C149.652 377.32 147.593 377.409 145.583 377.502C144.338 377.563 143.085 377.632 141.84 377.742H141.742C140.815 377.742 139.846 377.742 139.102 377.1C138.702 376.741 138.442 376.252 138.369 375.72L138.349 375.606V375.488C138.353 374.051 139.488 373.247 140.815 373.215Z" fill="white"/>
<path d="M195.323 408.679C195.546 408.679 195.726 408.747 195.862 408.884C196.016 409.02 196.093 409.2 196.093 409.422C196.093 409.644 196.016 409.832 195.862 409.985C195.726 410.122 195.546 410.19 195.323 410.19H186.159C185.937 410.19 185.748 410.122 185.594 409.985C185.457 409.832 185.389 409.644 185.389 409.422V393.028C185.389 392.806 185.466 392.627 185.62 392.49C185.774 392.336 185.971 392.26 186.21 392.26C186.433 392.26 186.621 392.336 186.775 392.49C186.929 392.627 187.006 392.806 187.006 393.028V408.679H195.323Z" fill="white"/>
<path d="M208.472 397.178C208.695 397.178 208.875 397.254 209.012 397.408C209.166 397.545 209.243 397.724 209.243 397.946V405.17C209.243 406.843 208.772 408.132 207.831 409.037C206.889 409.925 205.589 410.369 203.929 410.369C202.286 410.369 200.994 409.925 200.053 409.037C199.128 408.132 198.666 406.843 198.666 405.17V397.946C198.666 397.724 198.735 397.545 198.872 397.408C199.026 397.254 199.214 397.178 199.436 397.178C199.659 397.178 199.839 397.254 199.976 397.408C200.13 397.545 200.207 397.724 200.207 397.946V405.17C200.207 406.399 200.532 407.338 201.182 407.987C201.832 408.619 202.748 408.935 203.929 408.935C205.127 408.935 206.051 408.619 206.701 407.987C207.369 407.338 207.702 406.399 207.702 405.17V397.946C207.702 397.724 207.771 397.545 207.908 397.408C208.062 397.254 208.25 397.178 208.472 397.178Z" fill="white"/>
<path d="M225.398 403.633C225.398 404.913 225.115 406.075 224.551 407.116C223.986 408.158 223.207 408.978 222.215 409.575C221.222 410.156 220.118 410.446 218.903 410.446C217.688 410.446 216.584 410.156 215.592 409.575C214.599 408.978 213.82 408.158 213.256 407.116C212.691 406.075 212.409 404.913 212.409 403.633C212.409 402.352 212.691 401.191 213.256 400.149C213.82 399.107 214.599 398.288 215.592 397.69C216.584 397.092 217.688 396.793 218.903 396.793C220.118 396.793 221.222 397.092 222.215 397.69C223.207 398.288 223.986 399.107 224.551 400.149C225.115 401.191 225.398 402.352 225.398 403.633ZM223.858 403.633C223.858 402.608 223.644 401.686 223.216 400.866C222.788 400.047 222.189 399.406 221.419 398.945C220.666 398.467 219.827 398.228 218.903 398.228C217.979 398.228 217.141 398.467 216.388 398.945C215.635 399.406 215.036 400.047 214.591 400.866C214.163 401.686 213.949 402.608 213.949 403.633C213.949 404.64 214.163 405.554 214.591 406.373C215.036 407.193 215.635 407.842 216.388 408.32C217.141 408.781 217.979 409.012 218.903 409.012C219.827 409.012 220.666 408.781 221.419 408.32C222.189 407.859 222.788 407.219 223.216 406.399C223.644 405.579 223.858 404.657 223.858 403.633ZM221.855 394.437C221.975 394.573 222.035 394.719 222.035 394.872C222.035 394.958 221.992 395.043 221.907 395.128C221.838 395.214 221.744 395.256 221.624 395.256C221.487 395.256 221.376 395.231 221.291 395.18C221.205 395.128 221.085 395.034 220.931 394.898L218.903 393.284L216.952 394.923C216.918 394.941 216.85 394.992 216.747 395.077C216.661 395.145 216.584 395.197 216.516 395.231C216.447 395.265 216.37 395.282 216.285 395.282C216.165 395.282 216.062 395.239 215.977 395.154C215.891 395.069 215.848 394.975 215.848 394.872C215.848 394.736 215.917 394.599 216.054 394.462L217.928 392.413C218.116 392.123 218.398 391.978 218.775 391.978H219.186C219.391 391.978 219.554 392.012 219.673 392.08C219.793 392.131 219.904 392.242 220.007 392.413L221.855 394.437Z" fill="white"/>
<path d="M234.735 396.793C236.326 396.793 237.49 397.263 238.226 398.202C238.979 399.124 239.355 400.354 239.355 401.891V409.422C239.355 409.644 239.278 409.832 239.124 409.985C238.97 410.122 238.791 410.19 238.585 410.19C238.363 410.19 238.175 410.122 238.021 409.985C237.884 409.832 237.815 409.644 237.815 409.422V401.968C237.815 400.858 237.533 399.961 236.968 399.278C236.421 398.578 235.565 398.228 234.401 398.228C233.665 398.228 232.964 398.399 232.296 398.74C231.646 399.082 231.115 399.543 230.705 400.123C230.294 400.687 230.089 401.302 230.089 401.968V409.422C230.089 409.644 230.011 409.832 229.857 409.985C229.721 410.122 229.541 410.19 229.318 410.19C229.096 410.19 228.908 410.122 228.754 409.985C228.617 409.832 228.548 409.644 228.548 409.422V397.946C228.548 397.724 228.617 397.545 228.754 397.408C228.908 397.254 229.096 397.178 229.318 397.178C229.541 397.178 229.721 397.254 229.857 397.408C230.011 397.545 230.089 397.724 230.089 397.946V399.355C230.551 398.621 231.209 398.014 232.065 397.536C232.938 397.041 233.828 396.793 234.735 396.793Z" fill="white"/>
<path d="M261.061 397.101C261.284 397.101 261.464 397.178 261.6 397.331C261.755 397.485 261.832 397.673 261.832 397.895V409.422C261.832 409.644 261.755 409.832 261.6 409.985C261.464 410.122 261.284 410.19 261.061 410.19C260.839 410.19 260.651 410.122 260.497 409.985C260.36 409.832 260.291 409.644 260.291 409.422V407.705C259.863 408.474 259.222 409.123 258.366 409.652C257.51 410.182 256.578 410.446 255.568 410.446C254.421 410.446 253.386 410.147 252.462 409.55C251.555 408.952 250.836 408.132 250.306 407.091C249.792 406.049 249.535 404.879 249.535 403.581C249.535 402.284 249.801 401.122 250.331 400.098C250.862 399.056 251.58 398.245 252.488 397.664C253.412 397.084 254.43 396.793 255.542 396.793C256.569 396.793 257.51 397.041 258.366 397.536C259.222 398.031 259.863 398.68 260.291 399.483V397.895C260.291 397.673 260.36 397.485 260.497 397.331C260.651 397.178 260.839 397.101 261.061 397.101ZM255.722 409.012C256.612 409.012 257.408 408.781 258.109 408.32C258.828 407.842 259.384 407.193 259.778 406.373C260.189 405.537 260.394 404.606 260.394 403.581C260.394 402.591 260.189 401.686 259.778 400.866C259.384 400.047 258.828 399.406 258.109 398.945C257.408 398.467 256.612 398.228 255.722 398.228C254.832 398.228 254.028 398.458 253.309 398.919C252.607 399.381 252.051 400.021 251.64 400.841C251.247 401.643 251.05 402.557 251.05 403.581C251.05 404.606 251.247 405.537 251.64 406.373C252.034 407.193 252.582 407.842 253.283 408.32C254.002 408.781 254.815 409.012 255.722 409.012ZM258.802 394.616C258.922 394.753 258.982 394.898 258.982 395.052C258.982 395.137 258.939 395.222 258.854 395.308C258.785 395.393 258.691 395.436 258.571 395.436C258.434 395.436 258.323 395.41 258.238 395.359C258.152 395.308 258.032 395.214 257.878 395.077L255.85 393.463L253.899 395.103C253.865 395.12 253.797 395.171 253.694 395.256C253.608 395.325 253.531 395.376 253.463 395.41C253.395 395.444 253.318 395.461 253.232 395.461C253.112 395.461 253.009 395.419 252.924 395.333C252.838 395.248 252.796 395.154 252.796 395.052C252.796 394.915 252.864 394.778 253.001 394.642L254.875 392.593C255.063 392.302 255.345 392.157 255.722 392.157H256.133C256.338 392.157 256.501 392.191 256.62 392.26C256.74 392.311 256.851 392.422 256.954 392.593L258.802 394.616Z" fill="white"/>
<path d="M272.037 396.793C273.629 396.793 274.792 397.263 275.528 398.202C276.281 399.124 276.658 400.354 276.658 401.891V409.422C276.658 409.644 276.581 409.832 276.427 409.985C276.273 410.122 276.093 410.19 275.888 410.19C275.665 410.19 275.477 410.122 275.323 409.985C275.186 409.832 275.118 409.644 275.118 409.422V401.968C275.118 400.858 274.835 399.961 274.27 399.278C273.723 398.578 272.867 398.228 271.703 398.228C270.968 398.228 270.266 398.399 269.598 398.74C268.948 399.082 268.418 399.543 268.007 400.123C267.596 400.687 267.391 401.302 267.391 401.968V409.422C267.391 409.644 267.314 409.832 267.16 409.985C267.023 410.122 266.843 410.19 266.621 410.19C266.398 410.19 266.21 410.122 266.056 409.985C265.919 409.832 265.851 409.644 265.851 409.422V397.946C265.851 397.724 265.919 397.545 266.056 397.408C266.21 397.254 266.398 397.178 266.621 397.178C266.843 397.178 267.023 397.254 267.16 397.408C267.314 397.545 267.391 397.724 267.391 397.946V399.355C267.853 398.621 268.512 398.014 269.367 397.536C270.24 397.041 271.13 396.793 272.037 396.793Z" fill="white"/>
<path d="M293.384 396.793C294.188 396.793 294.932 396.887 295.617 397.075C296.319 397.246 296.875 397.485 297.286 397.792C297.713 398.1 297.927 398.433 297.927 398.791C297.927 398.979 297.859 399.15 297.722 399.304C297.602 399.457 297.448 399.534 297.26 399.534C297.089 399.534 296.943 399.5 296.823 399.432C296.721 399.363 296.601 399.261 296.464 399.124C296.242 398.902 296.028 398.74 295.822 398.638C295.566 398.518 295.223 398.424 294.795 398.356C294.385 398.271 293.94 398.228 293.461 398.228C292.519 398.228 291.655 398.467 290.868 398.945C290.098 399.423 289.49 400.072 289.045 400.892C288.6 401.712 288.378 402.617 288.378 403.607C288.378 404.632 288.592 405.554 289.02 406.373C289.447 407.193 290.038 407.842 290.791 408.32C291.561 408.781 292.434 409.012 293.409 409.012C294.025 409.012 294.513 408.961 294.872 408.858C295.249 408.756 295.617 408.611 295.976 408.423C296.096 408.354 296.301 408.201 296.592 407.962C296.729 407.842 296.849 407.757 296.952 407.705C297.054 407.637 297.166 407.603 297.286 407.603C297.491 407.603 297.653 407.671 297.773 407.808C297.893 407.927 297.953 408.09 297.953 408.295C297.953 408.585 297.748 408.901 297.337 409.242C296.926 409.567 296.361 409.849 295.643 410.088C294.924 410.327 294.128 410.446 293.255 410.446C292.006 410.446 290.894 410.156 289.918 409.575C288.943 408.978 288.181 408.158 287.633 407.116C287.103 406.075 286.838 404.905 286.838 403.607C286.838 402.36 287.111 401.225 287.659 400.2C288.207 399.159 288.977 398.33 289.969 397.716C290.962 397.101 292.1 396.793 293.384 396.793Z" fill="white"/>
<path d="M311.55 397.101C311.772 397.101 311.952 397.178 312.089 397.331C312.243 397.485 312.32 397.673 312.32 397.895V409.422C312.32 409.644 312.243 409.832 312.089 409.985C311.952 410.122 311.772 410.19 311.55 410.19C311.327 410.19 311.139 410.122 310.985 409.985C310.848 409.832 310.78 409.644 310.78 409.422V407.705C310.352 408.474 309.71 409.123 308.854 409.652C307.999 410.182 307.066 410.446 306.056 410.446C304.91 410.446 303.874 410.147 302.95 409.55C302.043 408.952 301.324 408.132 300.794 407.091C300.281 406.049 300.024 404.879 300.024 403.581C300.024 402.284 300.289 401.122 300.82 400.098C301.35 399.056 302.069 398.245 302.976 397.664C303.9 397.084 304.918 396.793 306.031 396.793C307.058 396.793 307.999 397.041 308.854 397.536C309.71 398.031 310.352 398.68 310.78 399.483V397.895C310.78 397.673 310.848 397.485 310.985 397.331C311.139 397.178 311.327 397.101 311.55 397.101ZM306.21 409.012C307.1 409.012 307.896 408.781 308.598 408.32C309.317 407.842 309.873 407.193 310.266 406.373C310.677 405.537 310.882 404.606 310.882 403.581C310.882 402.591 310.677 401.686 310.266 400.866C309.873 400.047 309.317 399.406 308.598 398.945C307.896 398.467 307.1 398.228 306.21 398.228C305.32 398.228 304.516 398.458 303.797 398.919C303.096 399.381 302.54 400.021 302.129 400.841C301.735 401.643 301.538 402.557 301.538 403.581C301.538 404.606 301.735 405.537 302.129 406.373C302.522 407.193 303.07 407.842 303.772 408.32C304.49 408.781 305.303 409.012 306.21 409.012ZM308.931 394.719C309.051 394.855 309.111 395 309.111 395.154C309.111 395.239 309.068 395.325 308.983 395.41C308.914 395.496 308.82 395.538 308.7 395.538C308.564 395.538 308.452 395.513 308.367 395.461C308.281 395.41 308.161 395.316 308.007 395.18L305.979 393.566L304.028 395.205C303.994 395.222 303.926 395.274 303.823 395.359C303.737 395.427 303.66 395.478 303.592 395.513C303.524 395.547 303.447 395.564 303.361 395.564C303.241 395.564 303.139 395.521 303.053 395.436C302.967 395.35 302.925 395.256 302.925 395.154C302.925 395.017 302.993 394.881 303.13 394.744L305.004 392.695C305.192 392.405 305.475 392.26 305.851 392.26H306.262C306.467 392.26 306.63 392.294 306.749 392.362C306.869 392.413 306.98 392.524 307.083 392.695L308.931 394.719ZM309.368 392.874C309.18 392.874 308.966 392.772 308.726 392.567L306.698 390.697C306.459 390.509 306.339 390.287 306.339 390.031C306.339 389.792 306.407 389.613 306.544 389.493C306.698 389.356 306.886 389.288 307.109 389.288C307.417 389.288 307.682 389.433 307.905 389.724L309.65 392.003C309.787 392.174 309.856 392.311 309.856 392.413C309.856 392.55 309.804 392.661 309.702 392.746C309.616 392.832 309.505 392.874 309.368 392.874Z" fill="white"/>
<path d="M322.526 396.793C324.117 396.793 325.281 397.263 326.017 398.202C326.77 399.124 327.146 400.354 327.146 401.891V409.422C327.146 409.644 327.069 409.832 326.915 409.985C326.761 410.122 326.581 410.19 326.376 410.19C326.154 410.19 325.965 410.122 325.811 409.985C325.674 409.832 325.606 409.644 325.606 409.422V401.968C325.606 400.858 325.324 399.961 324.759 399.278C324.211 398.578 323.356 398.228 322.192 398.228C321.456 398.228 320.754 398.399 320.087 398.74C319.437 399.082 318.906 399.543 318.495 400.123C318.085 400.687 317.879 401.302 317.879 401.968V409.422C317.879 409.644 317.802 409.832 317.648 409.985C317.511 410.122 317.332 410.19 317.109 410.19C316.887 410.19 316.698 410.122 316.544 409.985C316.407 409.832 316.339 409.644 316.339 409.422V397.946C316.339 397.724 316.407 397.545 316.544 397.408C316.698 397.254 316.887 397.178 317.109 397.178C317.332 397.178 317.511 397.254 317.648 397.408C317.802 397.545 317.879 397.724 317.879 397.946V399.355C318.341 398.621 319 398.014 319.856 397.536C320.729 397.041 321.618 396.793 322.526 396.793Z" fill="white"/>
<path fill-rule="evenodd" clip-rule="evenodd" d="M449.307 384.326L449.307 354.878L449.587 354.878C455.469 354.878 461.351 354.984 467.223 354.984C475.76 354.979 484.017 351.94 490.52 346.409C497.024 340.879 501.35 333.217 502.726 324.792L502.813 324.242C502.813 324.068 502.862 323.904 502.881 323.739C502.9 323.575 502.881 323.469 502.881 323.343C502.881 323.218 502.881 323.073 502.929 322.938C502.978 322.803 502.929 322.677 502.929 322.542C502.929 322.407 502.929 322.213 502.978 322.049C503.026 321.885 502.978 321.663 502.978 321.47L502.978 321.054C502.978 320.919 502.978 320.784 502.978 320.649C502.978 320.514 502.978 320.369 502.978 320.234C502.978 320.098 502.978 319.973 502.978 319.838L502.978 373.875C502.925 375.462 502.483 377.011 501.689 378.385C500.896 379.76 499.776 380.918 498.429 381.757L437.408 416.98C436.004 417.716 434.443 418.101 432.859 418.101C431.274 418.101 429.713 417.716 428.31 416.98L367.289 381.757C365.947 380.916 364.833 379.758 364.044 378.386C363.251 377.013 362.803 375.469 362.74 373.885L362.74 358.364L362.74 358.248C362.742 349.251 366.115 340.582 372.193 333.949C378.272 327.316 386.615 323.201 395.578 322.416C393.26 322.677 391.118 323.78 389.56 325.516C388.002 327.252 387.136 329.5 387.127 331.833L387.127 347.46C387.03 350.618 387.127 353.323 387.127 354.887L416.585 354.887L416.585 374.667C416.585 377.229 417.602 379.686 419.413 381.497C421.225 383.308 423.681 384.326 426.243 384.326L449.307 384.326Z" fill="url(#paint39_linear)"/>
<path fill-rule="evenodd" clip-rule="evenodd" d="M416.433 292.775V322.223H416.153C410.271 322.223 404.389 322.117 398.517 322.117C389.98 322.122 381.723 325.161 375.219 330.691C368.716 336.222 364.39 343.883 363.013 352.309L362.926 352.859C362.926 353.033 362.878 353.197 362.859 353.361C362.839 353.526 362.859 353.632 362.859 353.757C362.859 353.883 362.859 354.028 362.81 354.163C362.762 354.298 362.81 354.424 362.81 354.559C362.81 354.694 362.81 354.887 362.762 355.052C362.714 355.216 362.762 355.438 362.762 355.631V356.046C362.762 356.182 362.762 356.317 362.762 356.452C362.762 356.587 362.762 356.732 362.762 356.867C362.762 357.003 362.762 357.128 362.762 357.263V303.225C362.814 301.639 363.257 300.09 364.05 298.715C364.844 297.341 365.964 296.183 367.311 295.344L428.332 260.121C429.735 259.385 431.296 259 432.881 259C434.466 259 436.027 259.385 437.43 260.121L498.451 295.344C499.793 296.185 500.907 297.342 501.696 298.715C502.489 300.087 502.937 301.632 503 303.216V318.737V318.852C502.998 327.849 499.625 336.519 493.546 343.152C487.468 349.785 479.125 353.9 470.162 354.685C472.48 354.424 474.622 353.321 476.18 351.585C477.738 349.849 478.604 347.6 478.613 345.268V329.641C478.709 326.482 478.613 323.778 478.613 322.214H449.155V302.433C449.155 299.872 448.138 297.415 446.326 295.604C444.515 293.793 442.058 292.775 439.497 292.775H416.433Z" fill="url(#paint40_linear)"/>
</g>
<defs>
<filter id="filter0_d" x="43" y="254" width="480" height="189.101" filterUnits="userSpaceOnUse" color-interpolation-filters="sRGB">
<feFlood flood-opacity="0" result="BackgroundImageFix"/>
<feColorMatrix in="SourceAlpha" type="matrix" values="0 0 0 0 0 0 0 0 0 0 0 0 0 0 0 0 0 0 127 0"/>
<feOffset dx="5" dy="10"/>
<feGaussianBlur stdDeviation="7.5"/>
<feColorMatrix type="matrix" values="0 0 0 0 0.0980392 0 0 0 0 0.239216 0 0 0 0 0.419608 0 0 0 1 0"/>
<feBlend mode="normal" in2="BackgroundImageFix" result="effect1_dropShadow"/>
<feBlend mode="normal" in="SourceGraphic" in2="effect1_dropShadow" result="shape"/>
</filter>
<linearGradient id="paint0_linear" x1="372.059" y1="400.09" x2="494.241" y2="277.907" gradientUnits="userSpaceOnUse">
<stop stop-color="#FFAB67"/>
<stop offset="0.0554" stop-color="#FF9F6C"/>
<stop offset="0.3301" stop-color="#FF6784"/>
<stop offset="0.4627" stop-color="#FF518D"/>
<stop offset="1" stop-color="#5E309D"/>
</linearGradient>
<linearGradient id="paint1_linear" x1="364.697" y1="407.452" x2="501.604" y2="270.545" gradientUnits="userSpaceOnUse">
<stop stop-color="#FFAB67"/>
<stop offset="0.0554" stop-color="#FF9F6C"/>
<stop offset="0.3301" stop-color="#FF6784"/>
<stop offset="0.4627" stop-color="#FF518D"/>
<stop offset="1" stop-color="#5E309D"/>
</linearGradient>
<linearGradient id="paint2_linear" x1="357.334" y1="414.814" x2="508.966" y2="263.183" gradientUnits="userSpaceOnUse">
<stop stop-color="#FFAB67"/>
<stop offset="0.0554" stop-color="#FF9F6C"/>
<stop offset="0.3301" stop-color="#FF6784"/>
<stop offset="0.4627" stop-color="#FF518D"/>
<stop offset="1" stop-color="#5E309D"/>
</linearGradient>
<linearGradient id="paint3_linear" x1="349.972" y1="422.176" x2="516.328" y2="255.82" gradientUnits="userSpaceOnUse">
<stop stop-color="#FFAB67"/>
<stop offset="0.0554" stop-color="#FF9F6C"/>
<stop offset="0.3301" stop-color="#FF6784"/>
<stop offset="0.4627" stop-color="#FF518D"/>
<stop offset="1" stop-color="#5E309D"/>
</linearGradient>
<linearGradient id="paint4_linear" x1="342.609" y1="429.539" x2="523.69" y2="248.458" gradientUnits="userSpaceOnUse">
<stop stop-color="#FFAB67"/>
<stop offset="0.0554" stop-color="#FF9F6C"/>
<stop offset="0.3301" stop-color="#FF6784"/>
<stop offset="0.4627" stop-color="#FF518D"/>
<stop offset="1" stop-color="#5E309D"/>
</linearGradient>
<linearGradient id="paint5_linear" x1="335.247" y1="436.901" x2="531.053" y2="241.096" gradientUnits="userSpaceOnUse">
<stop stop-color="#FFAB67"/>
<stop offset="0.0554" stop-color="#FF9F6C"/>
<stop offset="0.3301" stop-color="#FF6784"/>
<stop offset="0.4627" stop-color="#FF518D"/>
<stop offset="1" stop-color="#5E309D"/>
</linearGradient>
<linearGradient id="paint6_linear" x1="327.885" y1="444.263" x2="538.415" y2="233.733" gradientUnits="userSpaceOnUse">
<stop stop-color="#FFAB67"/>
<stop offset="0.0554" stop-color="#FF9F6C"/>
<stop offset="0.3301" stop-color="#FF6784"/>
<stop offset="0.4627" stop-color="#FF518D"/>
<stop offset="1" stop-color="#5E309D"/>
</linearGradient>
<linearGradient id="paint7_linear" x1="320.523" y1="451.625" x2="545.778" y2="226.37" gradientUnits="userSpaceOnUse">
<stop stop-color="#FFAB67"/>
<stop offset="0.0554" stop-color="#FF9F6C"/>
<stop offset="0.3301" stop-color="#FF6784"/>
<stop offset="0.4627" stop-color="#FF518D"/>
<stop offset="1" stop-color="#5E309D"/>
</linearGradient>
<linearGradient id="paint8_linear" x1="313.16" y1="458.988" x2="553.14" y2="219.009" gradientUnits="userSpaceOnUse">
<stop stop-color="#FFAB67"/>
<stop offset="0.0554" stop-color="#FF9F6C"/>
<stop offset="0.3301" stop-color="#FF6784"/>
<stop offset="0.4627" stop-color="#FF518D"/>
<stop offset="1" stop-color="#5E309D"/>
</linearGradient>
<linearGradient id="paint9_linear" x1="305.798" y1="466.35" x2="560.502" y2="211.646" gradientUnits="userSpaceOnUse">
<stop stop-color="#FFAB67"/>
<stop offset="0.0554" stop-color="#FF9F6C"/>
<stop offset="0.3301" stop-color="#FF6784"/>
<stop offset="0.4627" stop-color="#FF518D"/>
<stop offset="1" stop-color="#5E309D"/>
</linearGradient>
<linearGradient id="paint10_linear" x1="298.435" y1="473.713" x2="567.864" y2="204.284" gradientUnits="userSpaceOnUse">
<stop stop-color="#FFAB67"/>
<stop offset="0.0554" stop-color="#FF9F6C"/>
<stop offset="0.3301" stop-color="#FF6784"/>
<stop offset="0.4627" stop-color="#FF518D"/>
<stop offset="1" stop-color="#5E309D"/>
</linearGradient>
<linearGradient id="paint11_linear" x1="291.073" y1="481.075" x2="575.227" y2="196.921" gradientUnits="userSpaceOnUse">
<stop stop-color="#FFAB67"/>
<stop offset="0.0554" stop-color="#FF9F6C"/>
<stop offset="0.3301" stop-color="#FF6784"/>
<stop offset="0.4627" stop-color="#FF518D"/>
<stop offset="1" stop-color="#5E309D"/>
</linearGradient>
<linearGradient id="paint12_linear" x1="283.711" y1="488.437" x2="582.589" y2="189.559" gradientUnits="userSpaceOnUse">
<stop stop-color="#FFAB67"/>
<stop offset="0.0554" stop-color="#FF9F6C"/>
<stop offset="0.3301" stop-color="#FF6784"/>
<stop offset="0.4627" stop-color="#FF518D"/>
<stop offset="1" stop-color="#5E309D"/>
</linearGradient>
<linearGradient id="paint13_linear" x1="276.349" y1="495.8" x2="589.952" y2="182.197" gradientUnits="userSpaceOnUse">
<stop stop-color="#FFAB67"/>
<stop offset="0.0554" stop-color="#FF9F6C"/>
<stop offset="0.3301" stop-color="#FF6784"/>
<stop offset="0.4627" stop-color="#FF518D"/>
<stop offset="1" stop-color="#5E309D"/>
</linearGradient>
<linearGradient id="paint14_linear" x1="268.986" y1="503.162" x2="597.314" y2="174.834" gradientUnits="userSpaceOnUse">
<stop stop-color="#FFAB67"/>
<stop offset="0.0554" stop-color="#FF9F6C"/>
<stop offset="0.3301" stop-color="#FF6784"/>
<stop offset="0.4627" stop-color="#FF518D"/>
<stop offset="1" stop-color="#5E309D"/>
</linearGradient>
<linearGradient id="paint15_linear" x1="261.624" y1="510.525" x2="604.676" y2="167.472" gradientUnits="userSpaceOnUse">
<stop stop-color="#FFAB67"/>
<stop offset="0.0554" stop-color="#FF9F6C"/>
<stop offset="0.3301" stop-color="#FF6784"/>
<stop offset="0.4627" stop-color="#FF518D"/>
<stop offset="1" stop-color="#5E309D"/>
</linearGradient>
<linearGradient id="paint16_linear" x1="254.262" y1="517.887" x2="612.039" y2="160.11" gradientUnits="userSpaceOnUse">
<stop stop-color="#FFAB67"/>
<stop offset="0.0554" stop-color="#FF9F6C"/>
<stop offset="0.3301" stop-color="#FF6784"/>
<stop offset="0.4627" stop-color="#FF518D"/>
<stop offset="1" stop-color="#5E309D"/>
</linearGradient>
<linearGradient id="paint17_linear" x1="246.899" y1="525.249" x2="619.401" y2="152.747" gradientUnits="userSpaceOnUse">
<stop stop-color="#FFAB67"/>
<stop offset="0.0554" stop-color="#FF9F6C"/>
<stop offset="0.3301" stop-color="#FF6784"/>
<stop offset="0.4627" stop-color="#FF518D"/>
<stop offset="1" stop-color="#5E309D"/>
</linearGradient>
<linearGradient id="paint18_linear" x1="239.537" y1="532.612" x2="626.763" y2="145.385" gradientUnits="userSpaceOnUse">
<stop stop-color="#FFAB67"/>
<stop offset="0.0554" stop-color="#FF9F6C"/>
<stop offset="0.3301" stop-color="#FF6784"/>
<stop offset="0.4627" stop-color="#FF518D"/>
<stop offset="1" stop-color="#5E309D"/>
</linearGradient>
<linearGradient id="paint19_linear" x1="232.174" y1="539.974" x2="634.125" y2="138.023" gradientUnits="userSpaceOnUse">
<stop stop-color="#FFAB67"/>
<stop offset="0.0554" stop-color="#FF9F6C"/>
<stop offset="0.3301" stop-color="#FF6784"/>
<stop offset="0.4627" stop-color="#FF518D"/>
<stop offset="1" stop-color="#5E309D"/>
</linearGradient>
<linearGradient id="paint20_linear" x1="224.812" y1="547.337" x2="641.488" y2="130.661" gradientUnits="userSpaceOnUse">
<stop stop-color="#FFAB67"/>
<stop offset="0.0554" stop-color="#FF9F6C"/>
<stop offset="0.3301" stop-color="#FF6784"/>
<stop offset="0.4627" stop-color="#FF518D"/>
<stop offset="1" stop-color="#5E309D"/>
</linearGradient>
<linearGradient id="paint21_linear" x1="217.45" y1="554.699" x2="648.85" y2="123.298" gradientUnits="userSpaceOnUse">
<stop stop-color="#FFAB67"/>
<stop offset="0.0554" stop-color="#FF9F6C"/>
<stop offset="0.3301" stop-color="#FF6784"/>
<stop offset="0.4627" stop-color="#FF518D"/>
<stop offset="1" stop-color="#5E309D"/>
</linearGradient>
<linearGradient id="paint22_linear" x1="210.088" y1="562.061" x2="656.213" y2="115.936" gradientUnits="userSpaceOnUse">
<stop stop-color="#FFAB67"/>
<stop offset="0.0554" stop-color="#FF9F6C"/>
<stop offset="0.3301" stop-color="#FF6784"/>
<stop offset="0.4627" stop-color="#FF518D"/>
<stop offset="1" stop-color="#5E309D"/>
</linearGradient>
<linearGradient id="paint23_linear" x1="202.725" y1="569.423" x2="663.575" y2="108.573" gradientUnits="userSpaceOnUse">
<stop stop-color="#FFAB67"/>
<stop offset="0.0554" stop-color="#FF9F6C"/>
<stop offset="0.3301" stop-color="#FF6784"/>
<stop offset="0.4627" stop-color="#FF518D"/>
<stop offset="1" stop-color="#5E309D"/>
</linearGradient>
<linearGradient id="paint24_linear" x1="195.363" y1="576.786" x2="670.937" y2="101.211" gradientUnits="userSpaceOnUse">
<stop stop-color="#FFAB67"/>
<stop offset="0.0554" stop-color="#FF9F6C"/>
<stop offset="0.3301" stop-color="#FF6784"/>
<stop offset="0.4627" stop-color="#FF518D"/>
<stop offset="1" stop-color="#5E309D"/>
</linearGradient>
<linearGradient id="paint25_linear" x1="188.001" y1="584.148" x2="678.3" y2="93.8485" gradientUnits="userSpaceOnUse">
<stop stop-color="#FFAB67"/>
<stop offset="0.0554" stop-color="#FF9F6C"/>
<stop offset="0.3301" stop-color="#FF6784"/>
<stop offset="0.4627" stop-color="#FF518D"/>
<stop offset="1" stop-color="#5E309D"/>
</linearGradient>
<linearGradient id="paint26_linear" x1="180.638" y1="591.51" x2="685.662" y2="86.4859" gradientUnits="userSpaceOnUse">
<stop stop-color="#FFAB67"/>
<stop offset="0.0554" stop-color="#FF9F6C"/>
<stop offset="0.3301" stop-color="#FF6784"/>
<stop offset="0.4627" stop-color="#FF518D"/>
<stop offset="1" stop-color="#5E309D"/>
</linearGradient>
<linearGradient id="paint27_linear" x1="173.276" y1="598.872" x2="693.024" y2="79.1239" gradientUnits="userSpaceOnUse">
<stop stop-color="#FFAB67"/>
<stop offset="0.0554" stop-color="#FF9F6C"/>
<stop offset="0.3301" stop-color="#FF6784"/>
<stop offset="0.4627" stop-color="#FF518D"/>
<stop offset="1" stop-color="#5E309D"/>
</linearGradient>
<linearGradient id="paint28_linear" x1="165.914" y1="606.235" x2="700.387" y2="71.7618" gradientUnits="userSpaceOnUse">
<stop stop-color="#FFAB67"/>
<stop offset="0.0554" stop-color="#FF9F6C"/>
<stop offset="0.3301" stop-color="#FF6784"/>
<stop offset="0.4627" stop-color="#FF518D"/>
<stop offset="1" stop-color="#5E309D"/>
</linearGradient>
<linearGradient id="paint29_linear" x1="158.551" y1="613.597" x2="707.749" y2="64.3993" gradientUnits="userSpaceOnUse">
<stop stop-color="#FFAB67"/>
<stop offset="0.0554" stop-color="#FF9F6C"/>
<stop offset="0.3301" stop-color="#FF6784"/>
<stop offset="0.4627" stop-color="#FF518D"/>
<stop offset="1" stop-color="#5E309D"/>
</linearGradient>
<linearGradient id="paint30_linear" x1="151.189" y1="620.959" x2="715.111" y2="57.0368" gradientUnits="userSpaceOnUse">
<stop stop-color="#FFAB67"/>
<stop offset="0.0554" stop-color="#FF9F6C"/>
<stop offset="0.3301" stop-color="#FF6784"/>
<stop offset="0.4627" stop-color="#FF518D"/>
<stop offset="1" stop-color="#5E309D"/>
</linearGradient>
<linearGradient id="paint31_linear" x1="143.826" y1="628.322" x2="722.474" y2="49.6747" gradientUnits="userSpaceOnUse">
<stop stop-color="#FFAB67"/>
<stop offset="0.0554" stop-color="#FF9F6C"/>
<stop offset="0.3301" stop-color="#FF6784"/>
<stop offset="0.4627" stop-color="#FF518D"/>
<stop offset="1" stop-color="#5E309D"/>
</linearGradient>
<linearGradient id="paint32_linear" x1="136.464" y1="635.685" x2="729.836" y2="42.3128" gradientUnits="userSpaceOnUse">
<stop stop-color="#FFAB67"/>
<stop offset="0.0554" stop-color="#FF9F6C"/>
<stop offset="0.3301" stop-color="#FF6784"/>
<stop offset="0.4627" stop-color="#FF518D"/>
<stop offset="1" stop-color="#5E309D"/>
</linearGradient>
<linearGradient id="paint33_linear" x1="129.102" y1="643.046" x2="737.198" y2="34.9498" gradientUnits="userSpaceOnUse">
<stop stop-color="#FFAB67"/>
<stop offset="0.0554" stop-color="#FF9F6C"/>
<stop offset="0.3301" stop-color="#FF6784"/>
<stop offset="0.4627" stop-color="#FF518D"/>
<stop offset="1" stop-color="#5E309D"/>
</linearGradient>
<linearGradient id="paint34_linear" x1="121.74" y1="650.409" x2="744.561" y2="27.5878" gradientUnits="userSpaceOnUse">
<stop stop-color="#FFAB67"/>
<stop offset="0.0554" stop-color="#FF9F6C"/>
<stop offset="0.3301" stop-color="#FF6784"/>
<stop offset="0.4627" stop-color="#FF518D"/>
<stop offset="1" stop-color="#5E309D"/>
</linearGradient>
<linearGradient id="paint35_linear" x1="114.377" y1="657.771" x2="751.923" y2="20.2254" gradientUnits="userSpaceOnUse">
<stop stop-color="#FFAB67"/>
<stop offset="0.0554" stop-color="#FF9F6C"/>
<stop offset="0.3301" stop-color="#FF6784"/>
<stop offset="0.4627" stop-color="#FF518D"/>
<stop offset="1" stop-color="#5E309D"/>
</linearGradient>
<linearGradient id="paint36_linear" x1="107.015" y1="665.134" x2="759.285" y2="12.8629" gradientUnits="userSpaceOnUse">
<stop stop-color="#FFAB67"/>
<stop offset="0.0554" stop-color="#FF9F6C"/>
<stop offset="0.3301" stop-color="#FF6784"/>
<stop offset="0.4627" stop-color="#FF518D"/>
<stop offset="1" stop-color="#5E309D"/>
</linearGradient>
<linearGradient id="paint37_linear" x1="99.6521" y1="672.496" x2="766.648" y2="5.50081" gradientUnits="userSpaceOnUse">
<stop stop-color="#FFAB67"/>
<stop offset="0.0554" stop-color="#FF9F6C"/>
<stop offset="0.3301" stop-color="#FF6784"/>
<stop offset="0.4627" stop-color="#FF518D"/>
<stop offset="1" stop-color="#5E309D"/>
</linearGradient>
<linearGradient id="paint38_linear" x1="92.2899" y1="679.858" x2="774.01" y2="-1.86154" gradientUnits="userSpaceOnUse">
<stop stop-color="#FFAB67"/>
<stop offset="0.0554" stop-color="#FF9F6C"/>
<stop offset="0.3301" stop-color="#FF6784"/>
<stop offset="0.4627" stop-color="#FF518D"/>
<stop offset="1" stop-color="#5E309D"/>
</linearGradient>
<linearGradient id="paint39_linear" x1="503.161" y1="369.008" x2="362.923" y2="369.008" gradientUnits="userSpaceOnUse">
<stop stop-color="#5BB6E6"/>
<stop offset="0.26" stop-color="#98DAF8"/>
<stop offset="0.86" stop-color="#0372AF"/>
<stop offset="1" stop-color="#005593"/>
</linearGradient>
<linearGradient id="paint40_linear" x1="362.579" y1="308.093" x2="502.816" y2="308.093" gradientUnits="userSpaceOnUse">
<stop stop-color="#5BB6E6"/>
<stop offset="0.26" stop-color="#98DAF8"/>
<stop offset="0.86" stop-color="#0372AF"/>
<stop offset="1" stop-color="#005593"/>
</linearGradient>
</defs>
</svg>
